<?xml version="1.0" encoding="UTF-8"?><svg xmlns="http://www.w3.org/2000/svg" xmlns:xlink="http://www.w3.org/1999/xlink" fill-opacity="1" color-rendering="auto" color-interpolation="auto" stroke="black" text-rendering="auto" stroke-linecap="square" width="595" stroke-miterlimit="10" stroke-opacity="1" shape-rendering="auto" fill="black" stroke-dasharray="none" font-weight="normal" stroke-width="1" height="365" font-family="'Dialog'" font-style="normal" stroke-linejoin="miter" font-size="12" stroke-dashoffset="0" image-rendering="auto">
  <!--Generated by ySVG 2.5-->
  <defs id="genericDefs"/>
  <g>
    <defs id="defs1">
      <linearGradient x1="214.5" gradientUnits="userSpaceOnUse" x2="225.4214" y1="156" y2="187.5524" id="linearGradient1" spreadMethod="pad">
        <stop stop-opacity="0.8627" stop-color="rgb(255,255,255)" offset="0%"/>
        <stop stop-opacity="0.1255" stop-color="rgb(255,255,255)" offset="100%"/>
      </linearGradient>
      <linearGradient x1="565.5" gradientUnits="userSpaceOnUse" x2="576.4214" y1="156" y2="187.5524" id="linearGradient2" spreadMethod="pad">
        <stop stop-opacity="0.8627" stop-color="rgb(255,255,255)" offset="0%"/>
        <stop stop-opacity="0.1255" stop-color="rgb(255,255,255)" offset="100%"/>
      </linearGradient>
      <linearGradient x1="200" gradientUnits="userSpaceOnUse" x2="209.2139" y1="256" y2="288.9072" id="linearGradient3" spreadMethod="pad">
        <stop stop-opacity="0.8627" stop-color="rgb(255,255,255)" offset="0%"/>
        <stop stop-opacity="0.1255" stop-color="rgb(255,255,255)" offset="100%"/>
      </linearGradient>
      <linearGradient x1="229.001" gradientUnits="userSpaceOnUse" x2="234.7947" y1="442.2" y2="477.0045" id="linearGradient4" spreadMethod="pad">
        <stop stop-opacity="0.8627" stop-color="rgb(255,255,255)" offset="0%"/>
        <stop stop-opacity="0.1255" stop-color="rgb(255,255,255)" offset="100%"/>
      </linearGradient>
      <linearGradient x1="229.001" gradientUnits="userSpaceOnUse" x2="234.7947" y1="356" y2="390.8045" id="linearGradient5" spreadMethod="pad">
        <stop stop-opacity="0.8627" stop-color="rgb(255,255,255)" offset="0%"/>
        <stop stop-opacity="0.1255" stop-color="rgb(255,255,255)" offset="100%"/>
      </linearGradient>
      <linearGradient x1="572.9" gradientUnits="userSpaceOnUse" x2="584.8206" y1="369.6" y2="384.6173" id="linearGradient6" spreadMethod="pad">
        <stop stop-opacity="0.8627" stop-color="rgb(255,255,255)" offset="0%"/>
        <stop stop-opacity="0.1255" stop-color="rgb(255,255,255)" offset="100%"/>
      </linearGradient>
      <linearGradient x1="572.9" gradientUnits="userSpaceOnUse" x2="584.8206" y1="412.2" y2="427.2173" id="linearGradient7" spreadMethod="pad">
        <stop stop-opacity="0.8627" stop-color="rgb(255,255,255)" offset="0%"/>
        <stop stop-opacity="0.1255" stop-color="rgb(255,255,255)" offset="100%"/>
      </linearGradient>
      <linearGradient x1="618.5" gradientUnits="userSpaceOnUse" x2="629.1802" y1="369.6" y2="387.4017" id="linearGradient8" spreadMethod="pad">
        <stop stop-opacity="0.8627" stop-color="rgb(255,255,255)" offset="0%"/>
        <stop stop-opacity="0.1255" stop-color="rgb(255,255,255)" offset="100%"/>
      </linearGradient>
      <linearGradient x1="618.5" gradientUnits="userSpaceOnUse" x2="629.1802" y1="412.2" y2="430.0018" id="linearGradient9" spreadMethod="pad">
        <stop stop-opacity="0.8627" stop-color="rgb(255,255,255)" offset="0%"/>
        <stop stop-opacity="0.1255" stop-color="rgb(255,255,255)" offset="100%"/>
      </linearGradient>
      <linearGradient x1="565.5" gradientUnits="userSpaceOnUse" x2="571.4684" y1="454.8" y2="454.9322" id="linearGradient10" spreadMethod="pad">
        <stop stop-opacity="0.8627" stop-color="rgb(255,255,255)" offset="0%"/>
        <stop stop-opacity="0.1255" stop-color="rgb(255,255,255)" offset="100%"/>
      </linearGradient>
      <linearGradient x1="618.5" gradientUnits="userSpaceOnUse" x2="624.4684" y1="454.8" y2="454.9322" id="linearGradient11" spreadMethod="pad">
        <stop stop-opacity="0.8627" stop-color="rgb(255,255,255)" offset="0%"/>
        <stop stop-opacity="0.1255" stop-color="rgb(255,255,255)" offset="100%"/>
      </linearGradient>
      <linearGradient x1="636.5" gradientUnits="userSpaceOnUse" x2="647.1802" y1="454.8" y2="472.6017" id="linearGradient12" spreadMethod="pad">
        <stop stop-opacity="0.8627" stop-color="rgb(255,255,255)" offset="0%"/>
        <stop stop-opacity="0.1255" stop-color="rgb(255,255,255)" offset="100%"/>
      </linearGradient>
      <clipPath clipPathUnits="userSpaceOnUse" id="clipPath1">
        <path d="M0 0 L595 0 L595 365 L0 365 L0 0 Z"/>
      </clipPath>
      <clipPath clipPathUnits="userSpaceOnUse" id="clipPath2">
        <path d="M126 141 L721 141 L721 506 L126 506 L126 141 Z"/>
      </clipPath>
    </defs>
    <g fill="white" text-rendering="geometricPrecision" shape-rendering="geometricPrecision" transform="translate(-126,-141)" stroke="white">
      <rect x="126" width="595" height="365" y="141" clip-path="url(#clipPath2)" stroke="none"/>
    </g>
    <g fill="rgb(255,204,153)" text-rendering="geometricPrecision" shape-rendering="geometricPrecision" transform="matrix(1,0,0,1,-126,-141)" stroke="rgb(255,204,153)">
      <rect x="214.5" y="156" clip-path="url(#clipPath2)" width="136" rx="1.5" ry="1.5" height="45" stroke="none"/>
    </g>
    <g text-rendering="geometricPrecision" stroke-miterlimit="1.45" shape-rendering="geometricPrecision" transform="matrix(1,0,0,1,-126,-141)" stroke-linecap="butt">
      <rect x="214.5" y="156" clip-path="url(#clipPath2)" fill="none" width="136" rx="1.5" ry="1.5" height="45"/>
    </g>
    <g fill="url(#linearGradient1)" text-rendering="geometricPrecision" shape-rendering="geometricPrecision" transform="matrix(1,0,0,1,-126,-141)" stroke="url(#linearGradient1)">
      <path d="M215.25 159 Q215.25 156.75 217.5 156.75 L299.9 156.75 Q302.15 156.75 302.15 159 Q302.15 161.25 260.95 176.25 Q219.75 191.25 217.5 191.25 Q215.25 191.25 215.25 189 Z" clip-path="url(#clipPath2)" stroke="none"/>
    </g>
    <g font-size="15" stroke-linecap="butt" transform="matrix(1,0,0,1,-126,-141)" text-rendering="geometricPrecision" font-family="sans-serif" shape-rendering="geometricPrecision" stroke-miterlimit="1.45">
      <text x="244.5569" xml:space="preserve" y="184.3923" clip-path="url(#clipPath2)" stroke="none">p-plan:Plan</text>
    </g>
    <g fill="rgb(255,204,153)" text-rendering="geometricPrecision" shape-rendering="geometricPrecision" transform="matrix(1,0,0,1,-126,-141)" stroke="rgb(255,204,153)">
      <rect x="565.5" y="156" clip-path="url(#clipPath2)" width="136" rx="1.5" ry="1.5" height="45" stroke="none"/>
    </g>
    <g text-rendering="geometricPrecision" stroke-miterlimit="1.45" shape-rendering="geometricPrecision" transform="matrix(1,0,0,1,-126,-141)" stroke-linecap="butt">
      <rect x="565.5" y="156" clip-path="url(#clipPath2)" fill="none" width="136" rx="1.5" ry="1.5" height="45"/>
    </g>
    <g fill="url(#linearGradient2)" text-rendering="geometricPrecision" shape-rendering="geometricPrecision" transform="matrix(1,0,0,1,-126,-141)" stroke="url(#linearGradient2)">
      <path d="M566.25 159 Q566.25 156.75 568.5 156.75 L650.9 156.75 Q653.15 156.75 653.15 159 Q653.15 161.25 611.95 176.25 Q570.75 191.25 568.5 191.25 Q566.25 191.25 566.25 189 Z" clip-path="url(#clipPath2)" stroke="none"/>
    </g>
    <g font-size="15" stroke-linecap="butt" transform="matrix(1,0,0,1,-126,-141)" text-rendering="geometricPrecision" font-family="sans-serif" shape-rendering="geometricPrecision" stroke-miterlimit="1.45">
      <text x="595.1394" xml:space="preserve" y="184.3923" clip-path="url(#clipPath2)" stroke="none">p-plan:Step</text>
    </g>
    <g fill="rgb(153,204,255)" text-rendering="geometricPrecision" shape-rendering="geometricPrecision" transform="matrix(1,0,0,1,-126,-141)" stroke="rgb(153,204,255)">
      <rect x="200" y="256" clip-path="url(#clipPath2)" width="165" rx="1.5" ry="1.5" height="45" stroke="none"/>
    </g>
    <g text-rendering="geometricPrecision" stroke-miterlimit="1.45" shape-rendering="geometricPrecision" transform="matrix(1,0,0,1,-126,-141)" stroke-linecap="butt">
      <rect x="200" y="256" clip-path="url(#clipPath2)" fill="none" width="165" rx="1.5" ry="1.5" height="45"/>
    </g>
    <g fill="url(#linearGradient3)" text-rendering="geometricPrecision" shape-rendering="geometricPrecision" transform="matrix(1,0,0,1,-126,-141)" stroke="url(#linearGradient3)">
      <path d="M200.75 259 Q200.75 256.75 203 256.75 L304.25 256.75 Q306.5 256.75 306.5 259 Q306.5 261.25 255.875 276.25 Q205.25 291.25 203 291.25 Q200.75 291.25 200.75 289 Z" clip-path="url(#clipPath2)" stroke="none"/>
    </g>
    <g font-size="15" stroke-linecap="butt" transform="matrix(1,0,0,1,-126,-141)" text-rendering="geometricPrecision" font-family="sans-serif" shape-rendering="geometricPrecision" stroke-miterlimit="1.45">
      <text x="203.7317" xml:space="preserve" y="284.3923" clip-path="url(#clipPath2)" stroke="none">wffd:WorkflowFragment</text>
    </g>
    <g fill="rgb(153,204,255)" text-rendering="geometricPrecision" shape-rendering="geometricPrecision" transform="matrix(1,0,0,1,-126,-141)" stroke="rgb(153,204,255)">
      <rect x="229.001" y="442.2" clip-path="url(#clipPath2)" width="268.4" rx="1.5" ry="1.5" height="45" stroke="none"/>
    </g>
    <g text-rendering="geometricPrecision" stroke-miterlimit="1.45" shape-rendering="geometricPrecision" transform="matrix(1,0,0,1,-126,-141)" stroke-linecap="butt">
      <rect x="229.001" y="442.2" clip-path="url(#clipPath2)" fill="none" width="268.4" rx="1.5" ry="1.5" height="45"/>
    </g>
    <g fill="url(#linearGradient4)" text-rendering="geometricPrecision" shape-rendering="geometricPrecision" transform="matrix(1,0,0,1,-126,-141)" stroke="url(#linearGradient4)">
      <path d="M229.751 445.2 Q229.751 442.95 232.001 442.95 L400.461 442.95 Q402.711 442.95 402.711 445.2 Q402.711 447.45 318.481 462.45 Q234.251 477.45 232.001 477.45 Q229.751 477.45 229.751 475.2 Z" clip-path="url(#clipPath2)" stroke="none"/>
    </g>
    <g font-size="15" stroke-linecap="butt" transform="matrix(1,0,0,1,-126,-141)" text-rendering="geometricPrecision" font-family="sans-serif" shape-rendering="geometricPrecision" stroke-miterlimit="1.45">
      <text x="233.1559" xml:space="preserve" y="470.5923" clip-path="url(#clipPath2)" stroke="none">wffd:DetectedResultWorkflowFragment</text>
    </g>
    <g fill="rgb(153,204,255)" text-rendering="geometricPrecision" shape-rendering="geometricPrecision" transform="matrix(1,0,0,1,-126,-141)" stroke="rgb(153,204,255)">
      <rect x="229.001" y="356" clip-path="url(#clipPath2)" width="268.4" rx="1.5" ry="1.5" height="45" stroke="none"/>
    </g>
    <g text-rendering="geometricPrecision" stroke-miterlimit="1.45" shape-rendering="geometricPrecision" transform="matrix(1,0,0,1,-126,-141)" stroke-linecap="butt">
      <rect x="229.001" y="356" clip-path="url(#clipPath2)" fill="none" width="268.4" rx="1.5" ry="1.5" height="45"/>
    </g>
    <g fill="url(#linearGradient5)" text-rendering="geometricPrecision" shape-rendering="geometricPrecision" transform="matrix(1,0,0,1,-126,-141)" stroke="url(#linearGradient5)">
      <path d="M229.751 359 Q229.751 356.75 232.001 356.75 L400.461 356.75 Q402.711 356.75 402.711 359 Q402.711 361.25 318.481 376.25 Q234.251 391.25 232.001 391.25 Q229.751 391.25 229.751 389 Z" clip-path="url(#clipPath2)" stroke="none"/>
    </g>
    <g font-size="15" stroke-linecap="butt" transform="matrix(1,0,0,1,-126,-141)" text-rendering="geometricPrecision" font-family="sans-serif" shape-rendering="geometricPrecision" stroke-miterlimit="1.45">
      <text x="269.8429" xml:space="preserve" y="384.3923" clip-path="url(#clipPath2)" stroke="none">wffd:TiedWorkflowFragment</text>
    </g>
    <g fill="rgb(255,204,153)" text-rendering="geometricPrecision" shape-rendering="geometricPrecision" transform="matrix(1,0,0,1,-126,-141)" stroke="rgb(255,204,153)">
      <rect x="572.9" y="369.6" clip-path="url(#clipPath2)" width="45.6" rx="1.5" ry="1.5" height="31.4" stroke="none"/>
    </g>
    <g text-rendering="geometricPrecision" stroke-miterlimit="1.45" shape-rendering="geometricPrecision" transform="matrix(1,0,0,1,-126,-141)" stroke-linecap="butt">
      <rect x="572.9" y="369.6" clip-path="url(#clipPath2)" fill="none" width="45.6" rx="1.5" ry="1.5" height="31.4"/>
    </g>
    <g fill="url(#linearGradient6)" text-rendering="geometricPrecision" shape-rendering="geometricPrecision" transform="matrix(1,0,0,1,-126,-141)" stroke="url(#linearGradient6)">
      <path d="M573.65 372.6 Q573.65 370.35 575.9 370.35 L599.54 370.35 Q601.79 370.35 601.79 372.6 Q601.79 374.85 589.97 384.41 Q578.15 393.97 575.9 393.97 Q573.65 393.97 573.65 391.72 Z" clip-path="url(#clipPath2)" stroke="none"/>
    </g>
    <g fill="rgb(153,204,255)" text-rendering="geometricPrecision" shape-rendering="geometricPrecision" transform="matrix(1,0,0,1,-126,-141)" stroke="rgb(153,204,255)">
      <rect x="572.9" y="412.2" clip-path="url(#clipPath2)" width="45.6" rx="1.5" ry="1.5" height="31.4" stroke="none"/>
    </g>
    <g text-rendering="geometricPrecision" stroke-miterlimit="1.45" shape-rendering="geometricPrecision" transform="matrix(1,0,0,1,-126,-141)" stroke-linecap="butt">
      <rect x="572.9" y="412.2" clip-path="url(#clipPath2)" fill="none" width="45.6" rx="1.5" ry="1.5" height="31.4"/>
    </g>
    <g fill="url(#linearGradient7)" text-rendering="geometricPrecision" shape-rendering="geometricPrecision" transform="matrix(1,0,0,1,-126,-141)" stroke="url(#linearGradient7)">
      <path d="M573.65 415.2 Q573.65 412.95 575.9 412.95 L599.54 412.95 Q601.79 412.95 601.79 415.2 Q601.79 417.45 589.97 427.01 Q578.15 436.57 575.9 436.57 Q573.65 436.57 573.65 434.32 Z" clip-path="url(#clipPath2)" stroke="none"/>
    </g>
    <g fill="url(#linearGradient8)" text-rendering="geometricPrecision" shape-rendering="geometricPrecision" transform="matrix(1,0,0,1,-126,-141)" stroke="url(#linearGradient8)">
      <path d="M619.25 372.6 Q619.25 370.35 621.5 370.35 L652.16 370.35 Q654.41 370.35 654.41 372.6 Q654.41 374.85 639.08 384.41 Q623.75 393.97 621.5 393.97 Q619.25 393.97 619.25 391.72 Z" clip-path="url(#clipPath2)" stroke="none"/>
    </g>
    <g font-size="15" stroke-linecap="butt" transform="matrix(1,0,0,1,-126,-141)" text-rendering="geometricPrecision" font-family="sans-serif" shape-rendering="geometricPrecision" stroke-miterlimit="1.45">
      <text x="625.8516" xml:space="preserve" y="391.1923" clip-path="url(#clipPath2)" stroke="none">p-plan</text>
    </g>
    <g fill="url(#linearGradient9)" text-rendering="geometricPrecision" shape-rendering="geometricPrecision" transform="matrix(1,0,0,1,-126,-141)" stroke="url(#linearGradient9)">
      <path d="M619.25 415.2 Q619.25 412.95 621.5 412.95 L652.16 412.95 Q654.41 412.95 654.41 415.2 Q654.41 417.45 639.08 427.01 Q623.75 436.57 621.5 436.57 Q619.25 436.57 619.25 434.32 Z" clip-path="url(#clipPath2)" stroke="none"/>
    </g>
    <g font-size="15" stroke-linecap="butt" transform="matrix(1,0,0,1,-126,-141)" text-rendering="geometricPrecision" font-family="sans-serif" shape-rendering="geometricPrecision" stroke-miterlimit="1.45">
      <text x="630.4476" xml:space="preserve" y="433.7923" clip-path="url(#clipPath2)" stroke="none">wf-fd</text>
    </g>
    <g fill="url(#linearGradient10)" text-rendering="geometricPrecision" shape-rendering="geometricPrecision" transform="matrix(1,0,0,1,-126,-141)" stroke="url(#linearGradient10)">
      <path d="M566.25 457.8 Q566.25 455.55 568.5 455.55 L568.5 455.55 Q570.75 455.55 570.75 457.8 Q570.75 460.05 570.75 469.61 Q570.75 479.17 568.5 479.17 Q566.25 479.17 566.25 476.92 Z" clip-path="url(#clipPath2)" stroke="none"/>
    </g>
    <g fill="url(#linearGradient11)" text-rendering="geometricPrecision" shape-rendering="geometricPrecision" transform="matrix(1,0,0,1,-126,-141)" stroke="url(#linearGradient11)">
      <path d="M619.25 457.8 Q619.25 455.55 621.5 455.55 L621.5 455.55 Q623.75 455.55 623.75 457.8 Q623.75 460.05 623.75 469.61 Q623.75 479.17 621.5 479.17 Q619.25 479.17 619.25 476.92 Z" clip-path="url(#clipPath2)" stroke="none"/>
    </g>
    <g fill="url(#linearGradient12)" text-rendering="geometricPrecision" shape-rendering="geometricPrecision" transform="matrix(1,0,0,1,-126,-141)" stroke="url(#linearGradient12)">
      <path d="M637.25 457.8 Q637.25 455.55 639.5 455.55 L670.16 455.55 Q672.41 455.55 672.41 457.8 Q672.41 460.05 657.08 469.61 Q641.75 479.17 639.5 479.17 Q637.25 479.17 637.25 476.92 Z" clip-path="url(#clipPath2)" stroke="none"/>
    </g>
    <g font-size="15" stroke-linecap="butt" transform="matrix(1,0,0,1,-126,-141)" text-rendering="geometricPrecision" font-family="sans-serif" shape-rendering="geometricPrecision" stroke-miterlimit="1.45">
      <text x="625.9366" xml:space="preserve" y="476.3923" clip-path="url(#clipPath2)" stroke="none">subClassOf</text>
    </g>
    <g text-rendering="geometricPrecision" stroke-miterlimit="1.45" shape-rendering="geometricPrecision" transform="matrix(1,0,0,1,-126,-141)" stroke-linecap="butt">
      <path fill="none" d="M585.4481 200.9915 L585.217 201.9692 L584.785 205.2008 L584.6723 208.4322 L584.8719 211.6409 L585.377 214.8042 L586.1802 217.8995 L587.2747 220.9042 L588.6534 223.7957 L590.3093 226.5513 L592.2354 229.1484 L594.4244 231.5645 L596.8696 233.7769 L599.5638 235.7629 L602.5 237.5 L605.5963 238.9325 L608.7602 240.0244 L611.9692 240.783 L615.2008 241.215 L618.4323 241.3277 L621.6409 241.1281 L624.8042 240.6231 L627.8995 239.8198 L630.9042 238.7253 L633.7957 237.3466 L636.5513 235.6907 L639.1484 233.7646 L641.5645 231.5755 L643.7769 229.1304 L645.7629 226.4362 L647.5 223.5 L648.9325 220.4038 L650.0245 217.2398 L650.783 214.0307 L651.215 210.7992 L651.2805 208.9215 L651.269 208.8222" clip-path="url(#clipPath2)"/>
    </g>
    <g text-rendering="geometricPrecision" stroke-miterlimit="1.45" shape-rendering="geometricPrecision" transform="matrix(1,0,0,1,-126,-141)" stroke-linecap="butt">
      <path d="M650.5514 200.8544 L646.6479 213.2545 L651.3587 209.8181 L656.6076 212.3575 Z" clip-path="url(#clipPath2)" stroke="none"/>
      <text x="465.5306" font-size="15" y="220.3135" clip-path="url(#clipPath2)" font-family="sans-serif" stroke="none" xml:space="preserve">p-plan:isPrecededBy</text>
      <path fill="none" d="M565.5023 178.5 L358.5214 178.5" clip-path="url(#clipPath2)"/>
      <path d="M350.5214 178.5 L362.5214 183.5 L359.5214 178.5 L362.5214 173.5 Z" clip-path="url(#clipPath2)" stroke="none"/>
      <text x="388.8762" font-size="15" y="173.5923" clip-path="url(#clipPath2)" font-family="sans-serif" stroke="none" xml:space="preserve">p-plan:isStepOfPlan</text>
      <path fill="none" d="M357.2268 301.0078 L357.2581 301.0242 L361.4253 302.7256 L365.7211 304.0144 L370.1128 304.8858 L374.5675 305.3347 L379.0524 305.3565 L383.5348 304.946 L387.9818 304.0985 L392.3606 302.8091 L396.6385 301.0727 L400.7825 298.8847 L404.76 296.24 L408.4508 293.2081 L411.7536 289.8835 L414.6633 286.2991 L417.1752 282.4876 L419.2842 278.4819 L420.9856 274.3147 L422.2744 270.0189 L423.1458 265.6272 L423.5948 261.1725 L423.6165 256.6876 L423.206 252.2052 L422.3585 247.7582 L421.069 243.3794 L419.3327 239.1015 L417.1447 234.9575 L414.5 230.98 L411.4681 227.2892 L408.1435 223.9864 L404.5591 221.0767 L400.7476 218.5648 L396.7419 216.4557 L392.5747 214.7544 L388.2789 213.4655 L383.8872 212.5942 L379.4325 212.1452 L374.9476 212.1235 L370.4652 212.534 L366.0182 213.3815 L361.6394 214.6709 L357.3615 216.4073 L353.2175 218.5953 L349.24 221.24 L345.5492 224.2719 L342.2464 227.5965 L339.3367 231.1809 L336.8248 234.9924 L334.7158 238.9981 L333.0143 243.1653 L331.7256 247.4611 L331.6028 248.0797 L331.5928 248.1792" clip-path="url(#clipPath2)"/>
      <path d="M330.4222 256.0931 L337.1243 244.9539 L331.7391 247.19 L327.2319 243.4906 Z" clip-path="url(#clipPath2)" stroke="none"/>
      <text x="390.041" font-size="15" y="263.3453" clip-path="url(#clipPath2)" font-family="sans-serif" stroke="none" xml:space="preserve">wffd:isPartOfWorkflowFragment</text>
      <path fill="none" d="M282.5 255.9902 L282.5 216.013" clip-path="url(#clipPath2)"/>
      <path fill="white" d="M282.5 201.013 L276.5 217.013 L288.5 217.013 Z" clip-path="url(#clipPath2)" stroke="none"/>
      <path fill="none" d="M282.5 201.013 L276.5 217.013 L288.5 217.013 Z" clip-path="url(#clipPath2)"/>
      <path fill="none" d="M228.9913 464.7 L209.001 464.7 L209.001 316.0317" clip-path="url(#clipPath2)"/>
      <path fill="white" d="M209.001 301.0317 L203.001 317.0317 L215.001 317.0317 Z" clip-path="url(#clipPath2)" stroke="none"/>
      <path fill="none" d="M209.001 301.0317 L203.001 317.0317 L215.001 317.0317 Z" clip-path="url(#clipPath2)"/>
      <path fill="none" d="M228.9827 472.5 L169 472.5 L169 178.5 L206.5275 178.5" clip-path="url(#clipPath2)"/>
      <path d="M214.5275 178.5 L202.5275 173.5 L205.5275 178.5 L202.5275 183.5 Z" clip-path="url(#clipPath2)" stroke="none"/>
      <text x="143.1382" font-size="15" y="485.3923" clip-path="url(#clipPath2)" font-family="sans-serif" stroke="none" xml:space="preserve">wffd:foundIn</text>
      <path fill="none" d="M363.201 442.1819 L363.201 408.9815" clip-path="url(#clipPath2)"/>
      <path d="M363.201 400.9815 L358.201 412.9815 L363.201 409.9815 L368.201 412.9815 Z" clip-path="url(#clipPath2)" stroke="none"/>
      <text x="268.5569" font-size="15" y="429.3923" clip-path="url(#clipPath2)" font-family="sans-serif" stroke="none" xml:space="preserve">wffd: foundAs</text>
      <path fill="none" d="M228.9904 378.5 L209 378.5 L209 316.0369" clip-path="url(#clipPath2)"/>
      <path fill="white" d="M209 301.0369 L203 317.0369 L215 317.0369 Z" clip-path="url(#clipPath2)" stroke="none"/>
      <path fill="none" d="M209 301.0369 L203 317.0369 L215 317.0369 Z" clip-path="url(#clipPath2)"/>
      <path fill="none" d="M618.4993 470.5 L587.9071 470.5" clip-path="url(#clipPath2)"/>
      <path fill="white" d="M572.9071 470.5 L588.9071 476.5 L588.9071 464.5 Z" clip-path="url(#clipPath2)" stroke="none"/>
      <path fill="none" d="M572.9071 470.5 L588.9071 476.5 L588.9071 464.5 Z" clip-path="url(#clipPath2)"/>
    </g>
  </g>
</svg>
