<?xml version="1.0" encoding="UTF-8"?><svg xmlns="http://www.w3.org/2000/svg" xmlns:xlink="http://www.w3.org/1999/xlink" fill-opacity="1" color-rendering="auto" color-interpolation="auto" stroke="black" text-rendering="auto" stroke-linecap="square" width="469" stroke-miterlimit="10" stroke-opacity="1" shape-rendering="auto" fill="black" stroke-dasharray="none" font-weight="normal" stroke-width="1" height="293" font-family="'Dialog'" font-style="normal" stroke-linejoin="miter" font-size="12" stroke-dashoffset="0" image-rendering="auto">
  <!--Generated by ySVG-->
  <defs id="genericDefs"/>
  <g>
    <defs id="defs1">
      <linearGradient x1="332" gradientUnits="userSpaceOnUse" x2="336.11" y1="175.5" y2="206.1141" id="linearGradient1" spreadMethod="pad">
        <stop stop-opacity="0.8627" stop-color="rgb(255,153,0)" offset="0%"/>
        <stop stop-opacity="0.1255" stop-color="rgb(255,153,0)" offset="100%"/>
      </linearGradient>
      <linearGradient x1="347" gradientUnits="userSpaceOnUse" x2="352.5346" y1="93" y2="122.6511" id="linearGradient2" spreadMethod="pad">
        <stop stop-opacity="0.8627" stop-color="rgb(153,153,255)" offset="0%"/>
        <stop stop-opacity="0.1255" stop-color="rgb(153,153,255)" offset="100%"/>
      </linearGradient>
      <linearGradient x1="365" gradientUnits="userSpaceOnUse" x2="368.4443" y1="245.5" y2="276.4907" id="linearGradient3" spreadMethod="pad">
        <stop stop-opacity="0.8627" stop-color="rgb(255,153,0)" offset="0%"/>
        <stop stop-opacity="0.1255" stop-color="rgb(255,153,0)" offset="100%"/>
      </linearGradient>
      <linearGradient x1="365" gradientUnits="userSpaceOnUse" x2="368.4443" y1="315.5" y2="346.4907" id="linearGradient4" spreadMethod="pad">
        <stop stop-opacity="0.8627" stop-color="rgb(255,153,0)" offset="0%"/>
        <stop stop-opacity="0.1255" stop-color="rgb(255,153,0)" offset="100%"/>
      </linearGradient>
      <linearGradient x1="592.5" gradientUnits="userSpaceOnUse" x2="596.8762" y1="175.5" y2="205.95" id="linearGradient5" spreadMethod="pad">
        <stop stop-opacity="0.8627" stop-color="rgb(153,153,255)" offset="0%"/>
        <stop stop-opacity="0.1255" stop-color="rgb(153,153,255)" offset="100%"/>
      </linearGradient>
      <linearGradient x1="589" gradientUnits="userSpaceOnUse" x2="592.1194" y1="245.5" y2="276.6562" id="linearGradient6" spreadMethod="pad">
        <stop stop-opacity="0.8627" stop-color="rgb(255,153,0)" offset="0%"/>
        <stop stop-opacity="0.1255" stop-color="rgb(255,153,0)" offset="100%"/>
      </linearGradient>
      <clipPath clipPathUnits="userSpaceOnUse" id="clipPath1">
        <path d="M0 0 L469 0 L469 293 L0 293 L0 0 Z"/>
      </clipPath>
      <clipPath clipPathUnits="userSpaceOnUse" id="clipPath2">
        <path d="M317 78 L786 78 L786 371 L317 371 L317 78 Z"/>
      </clipPath>
    </defs>
    <g fill="white" transform="translate(-317,-78)" stroke="white">
      <rect x="317" width="469" height="293" y="78" clip-path="url(#clipPath2)" stroke="none"/>
    </g>
    <g fill="rgb(255,153,0)" transform="matrix(1,0,0,1,-317,-78)" stroke="rgb(255,153,0)">
      <rect x="332" y="175.5" clip-path="url(#clipPath2)" width="146" rx="5" ry="5" height="40" stroke="none"/>
      <path fill="url(#linearGradient1)" d="M334.5 185.5 Q334.5 178 342 178 L416.9 178 Q424.4 178 424.4 185.5 Q424.4 193 386.95 199 Q349.5 205 342 205 Q334.5 205 334.5 197.5 Z" clip-path="url(#clipPath2)" stroke="none"/>
    </g>
    <g font-size="16" stroke-miterlimit="1.45" font-family="sans-serif" transform="matrix(1,0,0,1,-317,-78)" stroke-linecap="butt">
      <text x="357.8672" xml:space="preserve" y="201.7852" clip-path="url(#clipPath2)" stroke="none">opt:Algorithm</text>
    </g>
    <g fill="rgb(153,153,255)" transform="matrix(1,0,0,1,-317,-78)" stroke="rgb(153,153,255)">
      <rect x="347" y="93" clip-path="url(#clipPath2)" width="116" rx="5" ry="5" height="40" stroke="none"/>
      <path fill="url(#linearGradient2)" d="M349.5 103 Q349.5 95.5 357 95.5 L412.4 95.5 Q419.9 95.5 419.9 103 Q419.9 110.5 392.2 116.5 Q364.5 122.5 357 122.5 Q349.5 122.5 349.5 115 Z" clip-path="url(#clipPath2)" stroke="none"/>
    </g>
    <g font-size="16" stroke-miterlimit="1.45" font-family="sans-serif" transform="matrix(1,0,0,1,-317,-78)" stroke-linecap="butt">
      <text x="361.4258" xml:space="preserve" y="119.2852" clip-path="url(#clipPath2)" stroke="none">ro:Resource</text>
    </g>
    <g fill="rgb(255,153,0)" transform="matrix(1,0,0,1,-317,-78)" stroke="rgb(255,153,0)">
      <rect x="365" y="245.5" clip-path="url(#clipPath2)" width="168" rx="5" ry="5" height="40" stroke="none"/>
      <path fill="url(#linearGradient3)" d="M367.5 255.5 Q367.5 248 375 248 L464.2 248 Q471.7 248 471.7 255.5 Q471.7 263 427.1 269 Q382.5 275 375 275 Q367.5 275 367.5 267.5 Z" clip-path="url(#clipPath2)" stroke="none"/>
    </g>
    <g font-size="16" stroke-miterlimit="1.45" font-family="sans-serif" transform="matrix(1,0,0,1,-317,-78)" stroke-linecap="butt">
      <text x="384.0898" xml:space="preserve" y="261.9844" clip-path="url(#clipPath2)" stroke="none">opt:ParticleSwarm</text>
      <text x="370.75" xml:space="preserve" y="281.5859" clip-path="url(#clipPath2)" stroke="none">OptimizationAlgorithm</text>
    </g>
    <g fill="rgb(255,153,0)" transform="matrix(1,0,0,1,-317,-78)" stroke="rgb(255,153,0)">
      <rect x="365" y="315.5" clip-path="url(#clipPath2)" width="168" rx="5" ry="5" height="40" stroke="none"/>
      <path fill="url(#linearGradient4)" d="M367.5 325.5 Q367.5 318 375 318 L464.2 318 Q471.7 318 471.7 325.5 Q471.7 333 427.1 339 Q382.5 345 375 345 Q367.5 345 367.5 337.5 Z" clip-path="url(#clipPath2)" stroke="none"/>
    </g>
    <g font-size="16" stroke-miterlimit="1.45" font-family="sans-serif" transform="matrix(1,0,0,1,-317,-78)" stroke-linecap="butt">
      <text x="374.2969" xml:space="preserve" y="341.7852" clip-path="url(#clipPath2)" stroke="none">opt:GeneticAlgorithm</text>
    </g>
    <g fill="rgb(153,153,255)" transform="matrix(1,0,0,1,-317,-78)" stroke="rgb(153,153,255)">
      <rect x="592.5" y="175.5" clip-path="url(#clipPath2)" width="139" rx="5" ry="5" height="40" stroke="none"/>
      <path fill="url(#linearGradient5)" d="M595 185.5 Q595 178 602.5 178 L672.85 178 Q680.35 178 680.35 185.5 Q680.35 193 645.175 199 Q610 205 602.5 205 Q595 205 595 197.5 Z" clip-path="url(#clipPath2)" stroke="none"/>
    </g>
    <g font-size="16" stroke-miterlimit="1.45" font-family="sans-serif" transform="matrix(1,0,0,1,-317,-78)" stroke-linecap="butt">
      <text x="597.5312" xml:space="preserve" y="201.7852" clip-path="url(#clipPath2)" stroke="none">wfdesc:Parameter</text>
    </g>
    <g fill="rgb(255,153,0)" transform="matrix(1,0,0,1,-317,-78)" stroke="rgb(255,153,0)">
      <rect x="589" y="245.5" clip-path="url(#clipPath2)" width="182" rx="5" ry="5" height="40" stroke="none"/>
      <path fill="url(#linearGradient6)" d="M591.5 255.5 Q591.5 248 599 248 L697.3 248 Q704.8 248 704.8 255.5 Q704.8 263 655.65 269 Q606.5 275 599 275 Q591.5 275 591.5 267.5 Z" clip-path="url(#clipPath2)" stroke="none"/>
    </g>
    <g font-size="16" stroke-miterlimit="1.45" font-family="sans-serif" transform="matrix(1,0,0,1,-317,-78)" stroke-linecap="butt">
      <text x="595.5195" xml:space="preserve" y="271.7852" clip-path="url(#clipPath2)" stroke="none">opt:AlgorithmParameter</text>
    </g>
    <g stroke-linecap="butt" transform="matrix(1,0,0,1,-317,-78)" stroke-miterlimit="1.45">
      <path fill="none" d="M405 175.4792 L405 147.9824" clip-path="url(#clipPath2)"/>
    </g>
    <g fill="white" stroke-miterlimit="1.45" transform="matrix(1,0,0,1,-317,-78)" stroke-linecap="butt" stroke="white">
      <path d="M405 132.9824 L399 148.9824 L411 148.9824 Z" clip-path="url(#clipPath2)" stroke="none"/>
      <path fill="none" d="M405 132.9824 L399 148.9824 L411 148.9824 Z" clip-path="url(#clipPath2)" stroke="black"/>
      <path fill="none" d="M405 245.5037 L405 230.4722" clip-path="url(#clipPath2)" stroke="black"/>
      <path d="M405 215.4722 L399 231.4722 L411 231.4722 Z" clip-path="url(#clipPath2)" stroke="none"/>
      <path fill="none" d="M405 215.4722 L399 231.4722 L411 231.4722 Z" clip-path="url(#clipPath2)" stroke="black"/>
      <path fill="none" d="M365.0142 335.5 L348 335.5 L348 230.515" clip-path="url(#clipPath2)" stroke="black"/>
      <path d="M348 215.515 L342 231.515 L354 231.515 Z" clip-path="url(#clipPath2)" stroke="none"/>
      <path fill="none" d="M348 215.515 L342 231.515 L354 231.515 Z" clip-path="url(#clipPath2)" stroke="black"/>
      <path fill="none" d="M477.9905 200.9624 L583.4009 243.6439" clip-path="url(#clipPath2)" stroke="black"/>
      <path fill="black" d="M590.8162 246.6464 L581.5699 237.5082 L582.4741 243.2686 L577.8168 246.7772 Z" clip-path="url(#clipPath2)" stroke="none"/>
    </g>
    <g font-size="14" stroke-miterlimit="1.45" font-family="sans-serif" transform="matrix(1,0,0,1,-317,-78)" stroke-linecap="butt">
      <text x="479.9727" xml:space="preserve" y="216.4238" clip-path="url(#clipPath2)" stroke="none">opt:hasAlgorithm</text>
      <text x="499.8208" xml:space="preserve" y="233.5752" clip-path="url(#clipPath2)" stroke="none">Parameter</text>
      <path fill="none" d="M662 245.5178 L662 230.4778" clip-path="url(#clipPath2)"/>
    </g>
    <g fill="white" stroke-miterlimit="1.45" transform="matrix(1,0,0,1,-317,-78)" stroke-linecap="butt" stroke="white">
      <path d="M662 215.4778 L656 231.4778 L668 231.4778 Z" clip-path="url(#clipPath2)" stroke="none"/>
      <path fill="none" d="M662 215.4778 L656 231.4778 L668 231.4778 Z" clip-path="url(#clipPath2)" stroke="black"/>
    </g>
  </g>
</svg>
