<?xml version="1.0" encoding="UTF-8"?><svg xmlns="http://www.w3.org/2000/svg" xmlns:xlink="http://www.w3.org/1999/xlink" fill-opacity="1" color-rendering="auto" color-interpolation="auto" stroke="black" text-rendering="auto" stroke-linecap="square" width="426" stroke-miterlimit="10" stroke-opacity="1" shape-rendering="auto" fill="black" stroke-dasharray="none" font-weight="normal" stroke-width="1" height="305" font-family="'Dialog'" font-style="normal" stroke-linejoin="miter" font-size="12" stroke-dashoffset="0" image-rendering="auto">
  <!--Generated by ySVG-->
  <defs id="genericDefs"/>
  <g>
    <defs id="defs1">
      <linearGradient x1="357" gradientUnits="userSpaceOnUse" x2="361.11" y1="200.5" y2="231.1141" id="linearGradient1" spreadMethod="pad">
        <stop stop-opacity="0.8627" stop-color="rgb(255,153,0)" offset="0%"/>
        <stop stop-opacity="0.1255" stop-color="rgb(255,153,0)" offset="100%"/>
      </linearGradient>
      <linearGradient x1="372" gradientUnits="userSpaceOnUse" x2="377.5346" y1="118" y2="147.6511" id="linearGradient2" spreadMethod="pad">
        <stop stop-opacity="0.8627" stop-color="rgb(153,153,255)" offset="0%"/>
        <stop stop-opacity="0.1255" stop-color="rgb(153,153,255)" offset="100%"/>
      </linearGradient>
      <linearGradient x1="374" gradientUnits="userSpaceOnUse" x2="377.0778" y1="283" y2="314.1765" id="linearGradient3" spreadMethod="pad">
        <stop stop-opacity="0.8627" stop-color="rgb(255,153,0)" offset="0%"/>
        <stop stop-opacity="0.1255" stop-color="rgb(255,153,0)" offset="100%"/>
      </linearGradient>
      <linearGradient x1="374" gradientUnits="userSpaceOnUse" x2="376.9403" y1="353" y2="384.2421" id="linearGradient4" spreadMethod="pad">
        <stop stop-opacity="0.8627" stop-color="rgb(255,153,0)" offset="0%"/>
        <stop stop-opacity="0.1255" stop-color="rgb(255,153,0)" offset="100%"/>
      </linearGradient>
      <linearGradient x1="533" gradientUnits="userSpaceOnUse" x2="535.4787" y1="200.5" y2="231.9453" id="linearGradient5" spreadMethod="pad">
        <stop stop-opacity="0.8627" stop-color="rgb(255,153,0)" offset="0%"/>
        <stop stop-opacity="0.1255" stop-color="rgb(255,153,0)" offset="100%"/>
      </linearGradient>
      <linearGradient x1="571" gradientUnits="userSpaceOnUse" x2="575.11" y1="283" y2="313.6141" id="linearGradient6" spreadMethod="pad">
        <stop stop-opacity="0.8627" stop-color="rgb(255,153,0)" offset="0%"/>
        <stop stop-opacity="0.1255" stop-color="rgb(255,153,0)" offset="100%"/>
      </linearGradient>
      <linearGradient x1="573.5" gradientUnits="userSpaceOnUse" x2="577.7969" y1="118" y2="148.4997" id="linearGradient7" spreadMethod="pad">
        <stop stop-opacity="0.8627" stop-color="rgb(153,153,255)" offset="0%"/>
        <stop stop-opacity="0.1255" stop-color="rgb(153,153,255)" offset="100%"/>
      </linearGradient>
      <linearGradient x1="571" gradientUnits="userSpaceOnUse" x2="575.11" y1="353" y2="383.6141" id="linearGradient8" spreadMethod="pad">
        <stop stop-opacity="0.8627" stop-color="rgb(255,153,0)" offset="0%"/>
        <stop stop-opacity="0.1255" stop-color="rgb(255,153,0)" offset="100%"/>
      </linearGradient>
      <clipPath clipPathUnits="userSpaceOnUse" id="clipPath1">
        <path d="M0 0 L426 0 L426 305 L0 305 L0 0 Z"/>
      </clipPath>
      <clipPath clipPathUnits="userSpaceOnUse" id="clipPath2">
        <path d="M342 103 L768 103 L768 408 L342 408 L342 103 Z"/>
      </clipPath>
    </defs>
    <g fill="white" transform="translate(-342,-103)" stroke="white">
      <rect x="342" width="426" height="305" y="103" clip-path="url(#clipPath2)" stroke="none"/>
    </g>
    <g fill="rgb(255,153,0)" transform="matrix(1,0,0,1,-342,-103)" stroke="rgb(255,153,0)">
      <rect x="357" y="200.5" clip-path="url(#clipPath2)" width="146" rx="5" ry="5" height="40" stroke="none"/>
      <path fill="url(#linearGradient1)" d="M359.5 210.5 Q359.5 203 367 203 L441.9 203 Q449.4 203 449.4 210.5 Q449.4 218 411.95 224 Q374.5 230 367 230 Q359.5 230 359.5 222.5 Z" clip-path="url(#clipPath2)" stroke="none"/>
    </g>
    <g font-size="16" stroke-miterlimit="1.45" font-family="sans-serif" transform="matrix(1,0,0,1,-342,-103)" stroke-linecap="butt">
      <text x="390.8711" xml:space="preserve" y="226.7852" clip-path="url(#clipPath2)" stroke="none">opt:Fitness</text>
    </g>
    <g fill="rgb(153,153,255)" transform="matrix(1,0,0,1,-342,-103)" stroke="rgb(153,153,255)">
      <rect x="372" y="118" clip-path="url(#clipPath2)" width="116" rx="5" ry="5" height="40" stroke="none"/>
      <path fill="url(#linearGradient2)" d="M374.5 128 Q374.5 120.5 382 120.5 L437.4 120.5 Q444.9 120.5 444.9 128 Q444.9 135.5 417.2 141.5 Q389.5 147.5 382 147.5 Q374.5 147.5 374.5 140 Z" clip-path="url(#clipPath2)" stroke="none"/>
    </g>
    <g font-size="16" stroke-miterlimit="1.45" font-family="sans-serif" transform="matrix(1,0,0,1,-342,-103)" stroke-linecap="butt">
      <text x="386.4258" xml:space="preserve" y="144.2852" clip-path="url(#clipPath2)" stroke="none">ro:Resource</text>
    </g>
    <g fill="rgb(255,153,0)" transform="matrix(1,0,0,1,-342,-103)" stroke="rgb(255,153,0)">
      <rect x="374" y="283" clip-path="url(#clipPath2)" width="184" rx="5" ry="5" height="40" stroke="none"/>
      <path fill="url(#linearGradient3)" d="M376.5 293 Q376.5 285.5 384 285.5 L483.6 285.5 Q491.1 285.5 491.1 293 Q491.1 300.5 441.3 306.5 Q391.5 312.5 384 312.5 Q376.5 312.5 376.5 305 Z" clip-path="url(#clipPath2)" stroke="none"/>
    </g>
    <g font-size="16" stroke-miterlimit="1.45" font-family="sans-serif" transform="matrix(1,0,0,1,-342,-103)" stroke-linecap="butt">
      <text x="376.6328" xml:space="preserve" y="309.2852" clip-path="url(#clipPath2)" stroke="none">opt:MultiObjectiveFitness</text>
    </g>
    <g fill="rgb(255,153,0)" transform="matrix(1,0,0,1,-342,-103)" stroke="rgb(255,153,0)">
      <rect x="374" y="353" clip-path="url(#clipPath2)" width="191" rx="5" ry="5" height="40" stroke="none"/>
      <path fill="url(#linearGradient4)" d="M376.5 363 Q376.5 355.5 384 355.5 L488.15 355.5 Q495.65 355.5 495.65 363 Q495.65 370.5 443.575 376.5 Q391.5 382.5 384 382.5 Q376.5 382.5 376.5 375 Z" clip-path="url(#clipPath2)" stroke="none"/>
    </g>
    <g font-size="16" stroke-miterlimit="1.45" font-family="sans-serif" transform="matrix(1,0,0,1,-342,-103)" stroke-linecap="butt">
      <text x="374.7852" xml:space="preserve" y="379.2852" clip-path="url(#clipPath2)" stroke="none">opt:SingleObjectiveFitness</text>
    </g>
    <g fill="rgb(255,153,0)" transform="matrix(1,0,0,1,-342,-103)" stroke="rgb(255,153,0)">
      <rect x="533" y="200.5" clip-path="url(#clipPath2)" width="220" rx="5" ry="5" height="40" stroke="none"/>
      <path fill="url(#linearGradient5)" d="M535.5 210.5 Q535.5 203 543 203 L666 203 Q673.5 203 673.5 210.5 Q673.5 218 612 224 Q550.5 230 543 230 Q535.5 230 535.5 222.5 Z" clip-path="url(#clipPath2)" stroke="none"/>
    </g>
    <g font-size="16" stroke-miterlimit="1.45" font-family="sans-serif" transform="matrix(1,0,0,1,-342,-103)" stroke-linecap="butt">
      <text x="537.6094" xml:space="preserve" y="226.7852" clip-path="url(#clipPath2)" stroke="none">opt:FunctionOutputParameter</text>
    </g>
    <g fill="rgb(255,153,0)" transform="matrix(1,0,0,1,-342,-103)" stroke="rgb(255,153,0)">
      <rect x="571" y="283" clip-path="url(#clipPath2)" width="146" rx="5" ry="5" height="40" stroke="none"/>
      <path fill="url(#linearGradient6)" d="M573.5 293 Q573.5 285.5 581 285.5 L655.9 285.5 Q663.4 285.5 663.4 293 Q663.4 300.5 625.95 306.5 Q588.5 312.5 581 312.5 Q573.5 312.5 573.5 305 Z" clip-path="url(#clipPath2)" stroke="none"/>
    </g>
    <g font-size="16" stroke-miterlimit="1.45" font-family="sans-serif" transform="matrix(1,0,0,1,-342,-103)" stroke-linecap="butt">
      <text x="574.1875" xml:space="preserve" y="309.2852" clip-path="url(#clipPath2)" stroke="none">opt:FitnessFunction</text>
    </g>
    <g fill="rgb(153,153,255)" transform="matrix(1,0,0,1,-342,-103)" stroke="rgb(153,153,255)">
      <rect x="573.5" y="118" clip-path="url(#clipPath2)" width="141" rx="5" ry="5" height="40" stroke="none"/>
      <path fill="url(#linearGradient7)" d="M576 128 Q576 120.5 583.5 120.5 L655.15 120.5 Q662.65 120.5 662.65 128 Q662.65 135.5 626.825 141.5 Q591 147.5 583.5 147.5 Q576 147.5 576 140 Z" clip-path="url(#clipPath2)" stroke="none"/>
    </g>
    <g font-size="16" stroke-miterlimit="1.45" font-family="sans-serif" transform="matrix(1,0,0,1,-342,-103)" stroke-linecap="butt">
      <text x="579.5312" xml:space="preserve" y="144.2852" clip-path="url(#clipPath2)" stroke="none">wfdesc:Parameter</text>
    </g>
    <g fill="rgb(255,153,0)" transform="matrix(1,0,0,1,-342,-103)" stroke="rgb(255,153,0)">
      <rect x="571" y="353" clip-path="url(#clipPath2)" width="146" rx="5" ry="5" height="40" stroke="none"/>
      <path fill="url(#linearGradient8)" d="M573.5 363 Q573.5 355.5 581 355.5 L655.9 355.5 Q663.4 355.5 663.4 363 Q663.4 370.5 625.95 376.5 Q588.5 382.5 581 382.5 Q573.5 382.5 573.5 375 Z" clip-path="url(#clipPath2)" stroke="none"/>
    </g>
    <g font-size="16" stroke-miterlimit="1.45" font-family="sans-serif" transform="matrix(1,0,0,1,-342,-103)" stroke-linecap="butt">
      <text x="599.9727" xml:space="preserve" y="379.2852" clip-path="url(#clipPath2)" stroke="none">opt:Function</text>
    </g>
    <g stroke-linecap="butt" transform="matrix(1,0,0,1,-342,-103)" stroke-miterlimit="1.45">
      <path fill="none" d="M430 200.4792 L430 172.9824" clip-path="url(#clipPath2)"/>
    </g>
    <g fill="white" stroke-miterlimit="1.45" transform="matrix(1,0,0,1,-342,-103)" stroke-linecap="butt" stroke="white">
      <path d="M430 157.9824 L424 173.9824 L436 173.9824 Z" clip-path="url(#clipPath2)" stroke="none"/>
      <path fill="none" d="M430 157.9824 L424 173.9824 L436 173.9824 Z" clip-path="url(#clipPath2)" stroke="black"/>
      <path fill="none" d="M430 282.9792 L430 255.4824" clip-path="url(#clipPath2)" stroke="black"/>
      <path d="M430 240.4824 L424 256.4824 L436 256.4824 Z" clip-path="url(#clipPath2)" stroke="none"/>
      <path fill="none" d="M430 240.4824 L424 256.4824 L436 256.4824 Z" clip-path="url(#clipPath2)" stroke="black"/>
      <path fill="none" d="M373.9968 373 L368 373 L368 255.5071" clip-path="url(#clipPath2)" stroke="black"/>
      <path d="M368 240.5071 L362 256.5071 L374 256.5071 Z" clip-path="url(#clipPath2)" stroke="none"/>
      <path fill="none" d="M368 240.5071 L362 256.5071 L374 256.5071 Z" clip-path="url(#clipPath2)" stroke="black"/>
      <path fill="none" d="M481.8542 240.4905 L584.6378 280.115" clip-path="url(#clipPath2)" stroke="black"/>
      <path fill="black" d="M592.1023 282.9927 L582.704 274.0109 L583.7047 279.7553 L579.107 283.3415 Z" clip-path="url(#clipPath2)" stroke="none"/>
    </g>
    <g font-size="14" stroke-miterlimit="1.45" font-family="sans-serif" transform="matrix(1,0,0,1,-342,-103)" stroke-linecap="butt">
      <text x="449.9091" xml:space="preserve" y="261.5752" clip-path="url(#clipPath2)" stroke="none">opt:hasFitnessFunction</text>
      <path fill="none" d="M643.7573 282.9792 L643.3392 248.4818" clip-path="url(#clipPath2)"/>
      <path d="M643.2422 240.4824 L638.3881 252.5421 L643.3513 249.4817 L648.3873 252.4209 Z" clip-path="url(#clipPath2)" stroke="none"/>
      <text x="596.9162" xml:space="preserve" y="272.9238" clip-path="url(#clipPath2)" stroke="none">opt:hasOutputParameter</text>
      <path fill="none" d="M643.2427 200.4792 L643.576 172.9813" clip-path="url(#clipPath2)"/>
    </g>
    <g fill="white" stroke-miterlimit="1.45" transform="matrix(1,0,0,1,-342,-103)" stroke-linecap="butt" stroke="white">
      <path d="M643.7578 157.9824 L637.5643 173.9085 L649.5634 174.0539 Z" clip-path="url(#clipPath2)" stroke="none"/>
      <path fill="none" d="M643.7578 157.9824 L637.5643 173.9085 L649.5634 174.0539 Z" clip-path="url(#clipPath2)" stroke="black"/>
      <path fill="none" d="M644 322.9951 L644 338.0273" clip-path="url(#clipPath2)" stroke="black"/>
      <path d="M644 353.0273 L650 337.0273 L638 337.0273 Z" clip-path="url(#clipPath2)" stroke="none"/>
      <path fill="none" d="M644 353.0273 L650 337.0273 L638 337.0273 Z" clip-path="url(#clipPath2)" stroke="black"/>
    </g>
  </g>
</svg>
