<?xml version="1.0" encoding="UTF-8"?><svg xmlns="http://www.w3.org/2000/svg" xmlns:xlink="http://www.w3.org/1999/xlink" fill-opacity="1" color-rendering="auto" color-interpolation="auto" stroke="black" text-rendering="auto" stroke-linecap="square" width="407" stroke-miterlimit="10" stroke-opacity="1" shape-rendering="auto" fill="black" stroke-dasharray="none" font-weight="normal" stroke-width="1" height="425" font-family="'Dialog'" font-style="normal" stroke-linejoin="miter" font-size="12" stroke-dashoffset="0" image-rendering="auto">
  <!--Generated by ySVG-->
  <defs id="genericDefs"/>
  <g>
    <defs id="defs1">
      <linearGradient x1="190.5" gradientUnits="userSpaceOnUse" x2="194.3413" y1="231.5" y2="262.272" id="linearGradient1" spreadMethod="pad">
        <stop stop-opacity="0.8627" stop-color="rgb(255,153,0)" offset="0%"/>
        <stop stop-opacity="0.1255" stop-color="rgb(255,153,0)" offset="100%"/>
      </linearGradient>
      <linearGradient x1="190.5" gradientUnits="userSpaceOnUse" x2="194.3413" y1="149" y2="179.772" id="linearGradient2" spreadMethod="pad">
        <stop stop-opacity="0.8627" stop-color="rgb(153,153,255)" offset="0%"/>
        <stop stop-opacity="0.1255" stop-color="rgb(153,153,255)" offset="100%"/>
      </linearGradient>
      <linearGradient x1="352" gradientUnits="userSpaceOnUse" x2="355.8413" y1="149" y2="179.772" id="linearGradient3" spreadMethod="pad">
        <stop stop-opacity="0.8627" stop-color="rgb(153,153,255)" offset="0%"/>
        <stop stop-opacity="0.1255" stop-color="rgb(153,153,255)" offset="100%"/>
      </linearGradient>
      <linearGradient x1="190.5" gradientUnits="userSpaceOnUse" x2="194.3413" y1="314" y2="344.772" id="linearGradient4" spreadMethod="pad">
        <stop stop-opacity="0.8627" stop-color="rgb(255,153,0)" offset="0%"/>
        <stop stop-opacity="0.1255" stop-color="rgb(255,153,0)" offset="100%"/>
      </linearGradient>
      <linearGradient x1="275" gradientUnits="userSpaceOnUse" x2="278.8413" y1="384" y2="414.772" id="linearGradient5" spreadMethod="pad">
        <stop stop-opacity="0.8627" stop-color="rgb(255,153,0)" offset="0%"/>
        <stop stop-opacity="0.1255" stop-color="rgb(255,153,0)" offset="100%"/>
      </linearGradient>
      <linearGradient x1="275" gradientUnits="userSpaceOnUse" x2="278.8413" y1="444" y2="474.772" id="linearGradient6" spreadMethod="pad">
        <stop stop-opacity="0.8627" stop-color="rgb(255,153,0)" offset="0%"/>
        <stop stop-opacity="0.1255" stop-color="rgb(255,153,0)" offset="100%"/>
      </linearGradient>
      <linearGradient x1="275" gradientUnits="userSpaceOnUse" x2="278.8413" y1="504" y2="534.772" id="linearGradient7" spreadMethod="pad">
        <stop stop-opacity="0.8627" stop-color="rgb(255,153,0)" offset="0%"/>
        <stop stop-opacity="0.1255" stop-color="rgb(255,153,0)" offset="100%"/>
      </linearGradient>
      <linearGradient x1="413" gradientUnits="userSpaceOnUse" x2="416.8413" y1="231.5" y2="262.272" id="linearGradient8" spreadMethod="pad">
        <stop stop-opacity="0.8627" stop-color="rgb(153,153,255)" offset="0%"/>
        <stop stop-opacity="0.1255" stop-color="rgb(153,153,255)" offset="100%"/>
      </linearGradient>
      <linearGradient x1="413" gradientUnits="userSpaceOnUse" x2="416.8413" y1="314" y2="344.772" id="linearGradient9" spreadMethod="pad">
        <stop stop-opacity="0.8627" stop-color="rgb(153,153,255)" offset="0%"/>
        <stop stop-opacity="0.1255" stop-color="rgb(153,153,255)" offset="100%"/>
      </linearGradient>
      <clipPath clipPathUnits="userSpaceOnUse" id="clipPath1">
        <path d="M0 0 L407 0 L407 425 L0 425 L0 0 Z"/>
      </clipPath>
      <clipPath clipPathUnits="userSpaceOnUse" id="clipPath2">
        <path d="M175 134 L582 134 L582 559 L175 559 L175 134 Z"/>
      </clipPath>
    </defs>
    <g fill="white" transform="translate(-175,-134)" stroke="white">
      <rect x="175" width="407" height="425" y="134" clip-path="url(#clipPath2)" stroke="none"/>
    </g>
    <g fill="rgb(255,153,0)" transform="matrix(1,0,0,1,-175,-134)" stroke="rgb(255,153,0)">
      <rect x="190.5" y="231.5" clip-path="url(#clipPath2)" width="154" rx="5" ry="5" height="40" stroke="none"/>
      <path fill="url(#linearGradient1)" d="M193 241.5 Q193 234 200.5 234 L280.6 234 Q288.1 234 288.1 241.5 Q288.1 249 248.05 255 Q208 261 200.5 261 Q193 261 193 253.5 Z" clip-path="url(#clipPath2)" stroke="none"/>
    </g>
    <g font-size="16" stroke-miterlimit="1.45" font-family="sans-serif" transform="matrix(1,0,0,1,-175,-134)" stroke-linecap="butt">
      <text x="195.0195" xml:space="preserve" y="257.7852" clip-path="url(#clipPath2)" stroke="none">opt:OptimizationRun</text>
    </g>
    <g fill="rgb(153,153,255)" transform="matrix(1,0,0,1,-175,-134)" stroke="rgb(153,153,255)">
      <rect x="190.5" y="149" clip-path="url(#clipPath2)" width="154" rx="5" ry="5" height="40" stroke="none"/>
      <path fill="url(#linearGradient2)" d="M193 159 Q193 151.5 200.5 151.5 L280.6 151.5 Q288.1 151.5 288.1 159 Q288.1 166.5 248.05 172.5 Q208 178.5 200.5 178.5 Q193 178.5 193 171 Z" clip-path="url(#clipPath2)" stroke="none"/>
    </g>
    <g font-size="16" stroke-miterlimit="1.45" font-family="sans-serif" transform="matrix(1,0,0,1,-175,-134)" stroke-linecap="butt">
      <text x="194.1484" xml:space="preserve" y="175.2852" clip-path="url(#clipPath2)" stroke="none">wfprov:WorkflowRun</text>
    </g>
    <g fill="rgb(153,153,255)" transform="matrix(1,0,0,1,-175,-134)" stroke="rgb(153,153,255)">
      <rect x="352" y="149" clip-path="url(#clipPath2)" width="154" rx="5" ry="5" height="40" stroke="none"/>
      <path fill="url(#linearGradient3)" d="M354.5 159 Q354.5 151.5 362 151.5 L442.1 151.5 Q449.6 151.5 449.6 159 Q449.6 166.5 409.55 172.5 Q369.5 178.5 362 178.5 Q354.5 178.5 354.5 171 Z" clip-path="url(#clipPath2)" stroke="none"/>
    </g>
    <g font-size="16" stroke-miterlimit="1.45" font-family="sans-serif" transform="matrix(1,0,0,1,-175,-134)" stroke-linecap="butt">
      <text x="385.4258" xml:space="preserve" y="175.2852" clip-path="url(#clipPath2)" stroke="none">ro:Resource</text>
    </g>
    <g fill="rgb(255,153,0)" transform="matrix(1,0,0,1,-175,-134)" stroke="rgb(255,153,0)">
      <rect x="190.5" y="314" clip-path="url(#clipPath2)" width="154" rx="5" ry="5" height="40" stroke="none"/>
      <path fill="url(#linearGradient4)" d="M193 324 Q193 316.5 200.5 316.5 L280.6 316.5 Q288.1 316.5 288.1 324 Q288.1 331.5 248.05 337.5 Q208 343.5 200.5 343.5 Q193 343.5 193 336 Z" clip-path="url(#clipPath2)" stroke="none"/>
    </g>
    <g font-size="16" stroke-miterlimit="1.45" font-family="sans-serif" transform="matrix(1,0,0,1,-175,-134)" stroke-linecap="butt">
      <text x="238.5938" xml:space="preserve" y="340.2852" clip-path="url(#clipPath2)" stroke="none">opt:Flag</text>
    </g>
    <g fill="rgb(255,153,0)" transform="matrix(1,0,0,1,-175,-134)" stroke="rgb(255,153,0)">
      <rect x="275" y="384" clip-path="url(#clipPath2)" width="154" rx="5" ry="5" height="40" stroke="none"/>
      <path fill="url(#linearGradient5)" d="M277.5 394 Q277.5 386.5 285 386.5 L365.1 386.5 Q372.6 386.5 372.6 394 Q372.6 401.5 332.55 407.5 Q292.5 413.5 285 413.5 Q277.5 413.5 277.5 406 Z" clip-path="url(#clipPath2)" stroke="none"/>
    </g>
    <g font-size="16" stroke-miterlimit="1.45" font-family="sans-serif" transform="matrix(1,0,0,1,-175,-134)" stroke-linecap="butt">
      <text x="313.3086" xml:space="preserve" y="410.2852" clip-path="url(#clipPath2)" stroke="none">opt:Approx</text>
    </g>
    <g fill="rgb(255,153,0)" transform="matrix(1,0,0,1,-175,-134)" stroke="rgb(255,153,0)">
      <rect x="275" y="444" clip-path="url(#clipPath2)" width="154" rx="5" ry="5" height="40" stroke="none"/>
      <path fill="url(#linearGradient6)" d="M277.5 454 Q277.5 446.5 285 446.5 L365.1 446.5 Q372.6 446.5 372.6 454 Q372.6 461.5 332.55 467.5 Q292.5 473.5 285 473.5 Q277.5 473.5 277.5 466 Z" clip-path="url(#clipPath2)" stroke="none"/>
    </g>
    <g font-size="16" stroke-miterlimit="1.45" font-family="sans-serif" transform="matrix(1,0,0,1,-175,-134)" stroke-linecap="butt">
      <text x="311.0898" xml:space="preserve" y="470.2852" clip-path="url(#clipPath2)" stroke="none">opt:Original</text>
    </g>
    <g fill="rgb(255,153,0)" transform="matrix(1,0,0,1,-175,-134)" stroke="rgb(255,153,0)">
      <rect x="275" y="504" clip-path="url(#clipPath2)" width="154" rx="5" ry="5" height="40" stroke="none"/>
      <path fill="url(#linearGradient7)" d="M277.5 514 Q277.5 506.5 285 506.5 L365.1 506.5 Q372.6 506.5 372.6 514 Q372.6 521.5 332.55 527.5 Q292.5 533.5 285 533.5 Q277.5 533.5 277.5 526 Z" clip-path="url(#clipPath2)" stroke="none"/>
    </g>
    <g font-size="16" stroke-miterlimit="1.45" font-family="sans-serif" transform="matrix(1,0,0,1,-175,-134)" stroke-linecap="butt">
      <text x="287.0781" xml:space="preserve" y="530.2852" clip-path="url(#clipPath2)" stroke="none">opt:LinkToOriginal</text>
    </g>
    <g fill="rgb(153,153,255)" transform="matrix(1,0,0,1,-175,-134)" stroke="rgb(153,153,255)">
      <rect x="413" y="231.5" clip-path="url(#clipPath2)" width="154" rx="5" ry="5" height="40" stroke="none"/>
      <path fill="url(#linearGradient8)" d="M415.5 241.5 Q415.5 234 423 234 L503.1 234 Q510.6 234 510.6 241.5 Q510.6 249 470.55 255 Q430.5 261 423 261 Q415.5 261 415.5 253.5 Z" clip-path="url(#clipPath2)" stroke="none"/>
    </g>
    <g font-size="16" stroke-miterlimit="1.45" font-family="sans-serif" transform="matrix(1,0,0,1,-175,-134)" stroke-linecap="butt">
      <text x="429.9883" xml:space="preserve" y="257.7852" clip-path="url(#clipPath2)" stroke="none">wfdesc:Workflow</text>
    </g>
    <g fill="rgb(153,153,255)" transform="matrix(1,0,0,1,-175,-134)" stroke="rgb(153,153,255)">
      <rect x="413" y="314" clip-path="url(#clipPath2)" width="154" rx="5" ry="5" height="40" stroke="none"/>
      <path fill="url(#linearGradient9)" d="M415.5 324 Q415.5 316.5 423 316.5 L503.1 316.5 Q510.6 316.5 510.6 324 Q510.6 331.5 470.55 337.5 Q430.5 343.5 423 343.5 Q415.5 343.5 415.5 336 Z" clip-path="url(#clipPath2)" stroke="none"/>
    </g>
    <g font-size="16" stroke-miterlimit="1.45" font-family="sans-serif" transform="matrix(1,0,0,1,-175,-134)" stroke-linecap="butt">
      <text x="439.3203" xml:space="preserve" y="340.2852" clip-path="url(#clipPath2)" stroke="none">wfprov:Artifact</text>
    </g>
    <g stroke-linecap="butt" transform="matrix(1,0,0,1,-175,-134)" stroke-miterlimit="1.45">
      <path fill="none" d="M267.5 231.4792 L267.5 203.9824" clip-path="url(#clipPath2)"/>
    </g>
    <g fill="white" stroke-miterlimit="1.45" transform="matrix(1,0,0,1,-175,-134)" stroke-linecap="butt" stroke="white">
      <path d="M267.5 188.9824 L261.5 204.9824 L273.5 204.9824 Z" clip-path="url(#clipPath2)" stroke="none"/>
      <path fill="none" d="M267.5 188.9824 L261.5 204.9824 L273.5 204.9824 Z" clip-path="url(#clipPath2)" stroke="black"/>
      <path fill="none" d="M344.4622 251.5 L356 251.5 L356 203.9089" clip-path="url(#clipPath2)" stroke="black"/>
      <path d="M356 188.9089 L350 204.9089 L362 204.9089 Z" clip-path="url(#clipPath2)" stroke="none"/>
      <path fill="none" d="M356 188.9089 L350 204.9089 L362 204.9089 Z" clip-path="url(#clipPath2)" stroke="black"/>
      <path fill="none" d="M267.5 271.5208 L267.5 306.0176" clip-path="url(#clipPath2)" stroke="black"/>
      <path fill="black" d="M267.5 314.0176 L272.5 302.0176 L267.5 305.0176 L262.5 302.0176 Z" clip-path="url(#clipPath2)" stroke="none"/>
      <text x="228.4465" y="288.9139" clip-path="url(#clipPath2)" fill="black" font-family="sans-serif" stroke="none" xml:space="preserve">opt:hasFlag</text>
      <path fill="none" d="M274.9936 407.4 L267.5 407.4 L267.5 369.0345" clip-path="url(#clipPath2)" stroke="black"/>
      <path d="M267.5 354.0345 L261.5 370.0345 L273.5 370.0345 Z" clip-path="url(#clipPath2)" stroke="none"/>
      <path fill="none" d="M267.5 354.0345 L261.5 370.0345 L273.5 370.0345 Z" clip-path="url(#clipPath2)" stroke="black"/>
      <path fill="none" d="M274.9801 464 L248.6 464 L248.6 368.9848" clip-path="url(#clipPath2)" stroke="black"/>
      <path d="M248.6 353.9848 L242.6 369.9848 L254.6 369.9848 Z" clip-path="url(#clipPath2)" stroke="none"/>
      <path fill="none" d="M248.6 353.9848 L242.6 369.9848 L254.6 369.9848 Z" clip-path="url(#clipPath2)" stroke="black"/>
      <path fill="none" d="M275.0256 524 L228.6 524 L228.6 368.9571" clip-path="url(#clipPath2)" stroke="black"/>
      <path d="M228.6 353.9571 L222.6 369.9571 L234.6 369.9571 Z" clip-path="url(#clipPath2)" stroke="none"/>
      <path fill="none" d="M228.6 353.9571 L222.6 369.9571 L234.6 369.9571 Z" clip-path="url(#clipPath2)" stroke="black"/>
      <path fill="none" d="M344.5405 257 L374 257 L405.0093 257" clip-path="url(#clipPath2)" stroke="black"/>
      <path fill="black" d="M413.0093 257 L401.0093 252 L404.0093 257 L401.0093 262 Z" clip-path="url(#clipPath2)" stroke="none"/>
    </g>
    <g font-size="14" stroke-miterlimit="1.45" font-family="sans-serif" transform="matrix(1,0,0,1,-175,-134)" stroke-linecap="butt">
      <text x="321.5692" xml:space="preserve" y="284.0995" clip-path="url(#clipPath2)" stroke="none">wfdesc:describedByWorkflow</text>
      <path fill="none" d="M319.8 271.5133 L319.8 299.4 L490 299.4 L490 306.0307" clip-path="url(#clipPath2)"/>
      <path d="M490 314.0307 L495 302.0307 L490 305.0307 L485 302.0307 Z" clip-path="url(#clipPath2)" stroke="none"/>
      <text x="340.89" xml:space="preserve" y="312.0995" clip-path="url(#clipPath2)" stroke="none">wfprov:usedInput</text>
    </g>
  </g>
</svg>
