<?xml version="1.0" encoding="UTF-8"?><svg xmlns="http://www.w3.org/2000/svg" xmlns:xlink="http://www.w3.org/1999/xlink" fill-opacity="1" color-rendering="auto" color-interpolation="auto" stroke="black" text-rendering="auto" stroke-linecap="square" width="537" stroke-miterlimit="10" stroke-opacity="1" shape-rendering="auto" fill="black" stroke-dasharray="none" font-weight="normal" stroke-width="1" height="413" font-family="'Dialog'" font-style="normal" stroke-linejoin="miter" font-size="12" stroke-dashoffset="0" image-rendering="auto">
  <!--Generated by ySVG-->
  <defs id="genericDefs"/>
  <g>
    <defs id="defs1">
      <linearGradient x1="306.5" gradientUnits="userSpaceOnUse" x2="310.61" y1="150" y2="180.6141" id="linearGradient1" spreadMethod="pad">
        <stop stop-opacity="0.8627" stop-color="rgb(255,153,0)" offset="0%"/>
        <stop stop-opacity="0.1255" stop-color="rgb(255,153,0)" offset="100%"/>
      </linearGradient>
      <linearGradient x1="321.5" gradientUnits="userSpaceOnUse" x2="327.0346" y1="67.5" y2="97.1511" id="linearGradient2" spreadMethod="pad">
        <stop stop-opacity="0.8627" stop-color="rgb(153,153,255)" offset="0%"/>
        <stop stop-opacity="0.1255" stop-color="rgb(153,153,255)" offset="100%"/>
      </linearGradient>
      <linearGradient x1="306.5" gradientUnits="userSpaceOnUse" x2="310.61" y1="232.5" y2="263.1141" id="linearGradient3" spreadMethod="pad">
        <stop stop-opacity="0.8627" stop-color="rgb(255,153,0)" offset="0%"/>
        <stop stop-opacity="0.1255" stop-color="rgb(255,153,0)" offset="100%"/>
      </linearGradient>
      <linearGradient x1="445.75" gradientUnits="userSpaceOnUse" x2="448.6349" y1="320.5" y2="351.7679" id="linearGradient4" spreadMethod="pad">
        <stop stop-opacity="0.8627" stop-color="rgb(255,153,0)" offset="0%"/>
        <stop stop-opacity="0.1255" stop-color="rgb(255,153,0)" offset="100%"/>
      </linearGradient>
      <linearGradient x1="445.75" gradientUnits="userSpaceOnUse" x2="448.6349" y1="372.5" y2="403.7679" id="linearGradient5" spreadMethod="pad">
        <stop stop-opacity="0.8627" stop-color="rgb(255,153,0)" offset="0%"/>
        <stop stop-opacity="0.1255" stop-color="rgb(255,153,0)" offset="100%"/>
      </linearGradient>
      <linearGradient x1="489" gradientUnits="userSpaceOnUse" x2="494.0722" y1="232.5" y2="262.4862" id="linearGradient6" spreadMethod="pad">
        <stop stop-opacity="0.8627" stop-color="rgb(255,153,0)" offset="0%"/>
        <stop stop-opacity="0.1255" stop-color="rgb(255,153,0)" offset="100%"/>
      </linearGradient>
      <linearGradient x1="482.5" gradientUnits="userSpaceOnUse" x2="486.9584" y1="150" y2="180.3979" id="linearGradient7" spreadMethod="pad">
        <stop stop-opacity="0.8627" stop-color="rgb(153,153,255)" offset="0%"/>
        <stop stop-opacity="0.1255" stop-color="rgb(153,153,255)" offset="100%"/>
      </linearGradient>
      <linearGradient x1="145.5" gradientUnits="userSpaceOnUse" x2="149.61" y1="150" y2="180.6141" id="linearGradient8" spreadMethod="pad">
        <stop stop-opacity="0.8627" stop-color="rgb(153,153,255)" offset="0%"/>
        <stop stop-opacity="0.1255" stop-color="rgb(153,153,255)" offset="100%"/>
      </linearGradient>
      <linearGradient x1="145.5" gradientUnits="userSpaceOnUse" x2="148.5985" y1="372.5" y2="403.6664" id="linearGradient9" spreadMethod="pad">
        <stop stop-opacity="0.8627" stop-color="rgb(255,153,0)" offset="0%"/>
        <stop stop-opacity="0.1255" stop-color="rgb(255,153,0)" offset="100%"/>
      </linearGradient>
      <clipPath clipPathUnits="userSpaceOnUse" id="clipPath1">
        <path d="M0 0 L537 0 L537 413 L0 413 L0 0 Z"/>
      </clipPath>
      <clipPath clipPathUnits="userSpaceOnUse" id="clipPath2">
        <path d="M130 52 L667 52 L667 465 L130 465 L130 52 Z"/>
      </clipPath>
    </defs>
    <g fill="white" transform="translate(-130,-52)" stroke="white">
      <rect x="130" width="537" height="413" y="52" clip-path="url(#clipPath2)" stroke="none"/>
    </g>
    <g fill="rgb(255,153,0)" transform="matrix(1,0,0,1,-130,-52)" stroke="rgb(255,153,0)">
      <rect x="306.5" y="150" clip-path="url(#clipPath2)" width="146" rx="5" ry="5" height="40" stroke="none"/>
      <path fill="url(#linearGradient1)" d="M309 160 Q309 152.5 316.5 152.5 L391.4 152.5 Q398.9 152.5 398.9 160 Q398.9 167.5 361.45 173.5 Q324 179.5 316.5 179.5 Q309 179.5 309 172 Z" clip-path="url(#clipPath2)" stroke="none"/>
    </g>
    <g font-size="16" stroke-miterlimit="1.45" font-family="sans-serif" transform="matrix(1,0,0,1,-130,-52)" stroke-linecap="butt">
      <text x="318.125" xml:space="preserve" y="176.2852" clip-path="url(#clipPath2)" stroke="none">opt:SearchSpace</text>
    </g>
    <g fill="rgb(153,153,255)" transform="matrix(1,0,0,1,-130,-52)" stroke="rgb(153,153,255)">
      <rect x="321.5" y="67.5" clip-path="url(#clipPath2)" width="116" rx="5" ry="5" height="40" stroke="none"/>
      <path fill="url(#linearGradient2)" d="M324 77.5 Q324 70 331.5 70 L386.9 70 Q394.4 70 394.4 77.5 Q394.4 85 366.7 91 Q339 97 331.5 97 Q324 97 324 89.5 Z" clip-path="url(#clipPath2)" stroke="none"/>
    </g>
    <g font-size="16" stroke-miterlimit="1.45" font-family="sans-serif" transform="matrix(1,0,0,1,-130,-52)" stroke-linecap="butt">
      <text x="335.9258" xml:space="preserve" y="93.7852" clip-path="url(#clipPath2)" stroke="none">ro:Resource</text>
    </g>
    <g fill="rgb(255,153,0)" transform="matrix(1,0,0,1,-130,-52)" stroke="rgb(255,153,0)">
      <rect x="306.5" y="232.5" clip-path="url(#clipPath2)" width="146" rx="5" ry="5" height="40" stroke="none"/>
      <path fill="url(#linearGradient3)" d="M309 242.5 Q309 235 316.5 235 L391.4 235 Q398.9 235 398.9 242.5 Q398.9 250 361.45 256 Q324 262 316.5 262 Q309 262 309 254.5 Z" clip-path="url(#clipPath2)" stroke="none"/>
    </g>
    <g font-size="16" stroke-miterlimit="1.45" font-family="sans-serif" transform="matrix(1,0,0,1,-130,-52)" stroke-linecap="butt">
      <text x="321.2344" xml:space="preserve" y="258.7852" clip-path="url(#clipPath2)" stroke="none">opt:Dependency</text>
    </g>
    <g fill="rgb(255,153,0)" transform="matrix(1,0,0,1,-130,-52)" stroke="rgb(255,153,0)">
      <rect x="445.75" y="320.5" clip-path="url(#clipPath2)" width="194" rx="5" ry="5" height="40" stroke="none"/>
      <path fill="url(#linearGradient4)" d="M448.25 330.5 Q448.25 323 455.75 323 L561.85 323 Q569.35 323 569.35 330.5 Q569.35 338 516.3 344 Q463.25 350 455.75 350 Q448.25 350 448.25 342.5 Z" clip-path="url(#clipPath2)" stroke="none"/>
    </g>
    <g font-size="16" stroke-miterlimit="1.45" font-family="sans-serif" transform="matrix(1,0,0,1,-130,-52)" stroke-linecap="butt">
      <text x="448.4727" xml:space="preserve" y="346.7852" clip-path="url(#clipPath2)" stroke="none">opt:ProcessorDependency</text>
    </g>
    <g fill="rgb(255,153,0)" transform="matrix(1,0,0,1,-130,-52)" stroke="rgb(255,153,0)">
      <rect x="445.75" y="372.5" clip-path="url(#clipPath2)" width="194" rx="5" ry="5" height="40" stroke="none"/>
      <path fill="url(#linearGradient5)" d="M448.25 382.5 Q448.25 375 455.75 375 L561.85 375 Q569.35 375 569.35 382.5 Q569.35 390 516.3 396 Q463.25 402 455.75 402 Q448.25 402 448.25 394.5 Z" clip-path="url(#clipPath2)" stroke="none"/>
    </g>
    <g font-size="16" stroke-miterlimit="1.45" font-family="sans-serif" transform="matrix(1,0,0,1,-130,-52)" stroke-linecap="butt">
      <text x="448.0234" xml:space="preserve" y="398.7852" clip-path="url(#clipPath2)" stroke="none">opt:parameterDependency</text>
    </g>
    <g fill="rgb(255,153,0)" transform="matrix(1,0,0,1,-130,-52)" stroke="rgb(255,153,0)">
      <rect x="489" y="232.5" clip-path="url(#clipPath2)" width="124" rx="5" ry="5" height="40" stroke="none"/>
      <path fill="url(#linearGradient6)" d="M491.5 242.5 Q491.5 235 499 235 L559.6 235 Q567.1 235 567.1 242.5 Q567.1 250 536.8 256 Q506.5 262 499 262 Q491.5 262 491.5 254.5 Z" clip-path="url(#clipPath2)" stroke="none"/>
    </g>
    <g font-size="16" stroke-miterlimit="1.45" font-family="sans-serif" transform="matrix(1,0,0,1,-130,-52)" stroke-linecap="butt">
      <text x="501.6445" xml:space="preserve" y="258.7852" clip-path="url(#clipPath2)" stroke="none">opt:Processor</text>
    </g>
    <g fill="rgb(153,153,255)" transform="matrix(1,0,0,1,-130,-52)" stroke="rgb(153,153,255)">
      <rect x="482.5" y="150" clip-path="url(#clipPath2)" width="137" rx="5" ry="5" height="40" stroke="none"/>
      <path fill="url(#linearGradient7)" d="M485 160 Q485 152.5 492.5 152.5 L561.55 152.5 Q569.05 152.5 569.05 160 Q569.05 167.5 534.525 173.5 Q500 179.5 492.5 179.5 Q485 179.5 485 172 Z" clip-path="url(#clipPath2)" stroke="none"/>
    </g>
    <g font-size="16" stroke-miterlimit="1.45" font-family="sans-serif" transform="matrix(1,0,0,1,-130,-52)" stroke-linecap="butt">
      <text x="494.9805" xml:space="preserve" y="176.2852" clip-path="url(#clipPath2)" stroke="none">wfdesc:Process</text>
    </g>
    <g fill="rgb(153,153,255)" transform="matrix(1,0,0,1,-130,-52)" stroke="rgb(153,153,255)">
      <rect x="145.5" y="150" clip-path="url(#clipPath2)" width="146" rx="5" ry="5" height="40" stroke="none"/>
      <path fill="url(#linearGradient8)" d="M148 160 Q148 152.5 155.5 152.5 L230.4 152.5 Q237.9 152.5 237.9 160 Q237.9 167.5 200.45 173.5 Q163 179.5 155.5 179.5 Q148 179.5 148 172 Z" clip-path="url(#clipPath2)" stroke="none"/>
    </g>
    <g font-size="16" stroke-miterlimit="1.45" font-family="sans-serif" transform="matrix(1,0,0,1,-130,-52)" stroke-linecap="butt">
      <text x="154.0312" xml:space="preserve" y="176.2852" clip-path="url(#clipPath2)" stroke="none">wfdesc:Parameter</text>
    </g>
    <g fill="rgb(255,153,0)" transform="matrix(1,0,0,1,-130,-52)" stroke="rgb(255,153,0)">
      <rect x="145.5" y="372.5" clip-path="url(#clipPath2)" width="183" rx="5" ry="5" height="40" stroke="none"/>
      <path fill="url(#linearGradient9)" d="M148 382.5 Q148 375 155.5 375 L254.45 375 Q261.95 375 261.95 382.5 Q261.95 390 212.475 396 Q163 402 155.5 402 Q148 402 148 394.5 Z" clip-path="url(#clipPath2)" stroke="none"/>
    </g>
    <g font-size="16" stroke-miterlimit="1.45" font-family="sans-serif" transform="matrix(1,0,0,1,-130,-52)" stroke-linecap="butt">
      <text x="161.4023" xml:space="preserve" y="388.9844" clip-path="url(#clipPath2)" stroke="none">opt:OptimizationInput</text>
      <text x="199.6523" xml:space="preserve" y="408.5859" clip-path="url(#clipPath2)" stroke="none">Parameter</text>
    </g>
    <g stroke-linecap="butt" transform="matrix(1,0,0,1,-130,-52)" stroke-miterlimit="1.45">
      <path fill="none" d="M379.5 149.9792 L379.5 122.4824" clip-path="url(#clipPath2)"/>
    </g>
    <g fill="white" stroke-miterlimit="1.45" transform="matrix(1,0,0,1,-130,-52)" stroke-linecap="butt" stroke="white">
      <path d="M379.5 107.4824 L373.5 123.4824 L385.5 123.4824 Z" clip-path="url(#clipPath2)" stroke="none"/>
      <path fill="none" d="M379.5 107.4824 L373.5 123.4824 L385.5 123.4824 Z" clip-path="url(#clipPath2)" stroke="black"/>
      <path fill="none" d="M379.5 190.0208 L379.5 224.5176" clip-path="url(#clipPath2)" stroke="black"/>
      <path fill="black" d="M379.5 232.5176 L384.5 220.5176 L379.5 223.5176 L374.5 220.5176 Z" clip-path="url(#clipPath2)" stroke="none"/>
    </g>
    <g font-size="14" stroke-miterlimit="1.45" font-family="sans-serif" transform="matrix(1,0,0,1,-130,-52)" stroke-linecap="butt">
      <text x="317.2314" xml:space="preserve" y="216.7495" clip-path="url(#clipPath2)" stroke="none">opt:hasDependency</text>
      <path fill="none" d="M445.7836 338 L379.5 338 L379.5 287.4973" clip-path="url(#clipPath2)"/>
    </g>
    <g fill="white" stroke-miterlimit="1.45" transform="matrix(1,0,0,1,-130,-52)" stroke-linecap="butt" stroke="white">
      <path d="M379.5 272.4973 L373.5 288.4973 L385.5 288.4973 Z" clip-path="url(#clipPath2)" stroke="none"/>
      <path fill="none" d="M379.5 272.4973 L373.5 288.4973 L385.5 288.4973 Z" clip-path="url(#clipPath2)" stroke="black"/>
      <path fill="none" d="M445.7368 380.5 L336 380.5 L336 287.5306" clip-path="url(#clipPath2)" stroke="black"/>
      <path d="M336 272.5306 L330 288.5306 L342 288.5306 Z" clip-path="url(#clipPath2)" stroke="none"/>
      <path fill="none" d="M336 272.5306 L330 288.5306 L342 288.5306 Z" clip-path="url(#clipPath2)" stroke="black"/>
      <path fill="none" d="M452.4796 252.5 L480.9918 252.5" clip-path="url(#clipPath2)" stroke="black"/>
      <path fill="black" d="M488.9918 252.5 L476.9918 247.5 L479.9918 252.5 L476.9918 257.5 Z" clip-path="url(#clipPath2)" stroke="none"/>
    </g>
    <g font-size="14" stroke-miterlimit="1.45" font-family="sans-serif" transform="matrix(1,0,0,1,-130,-52)" stroke-linecap="butt">
      <text x="394.5986" xml:space="preserve" y="287.9995" clip-path="url(#clipPath2)" stroke="none">opt:hasSourceProcessor</text>
      <path fill="none" d="M571.25 320.5248 L571.25 280.4889" clip-path="url(#clipPath2)"/>
      <path d="M571.25 272.4889 L566.25 284.4889 L571.25 281.4889 L576.25 284.4889 Z" clip-path="url(#clipPath2)" stroke="none"/>
      <text x="496.5469" xml:space="preserve" y="310.4238" clip-path="url(#clipPath2)" stroke="none">opt:hasTargetProcessor</text>
      <path fill="none" d="M551 232.4792 L551 204.9824" clip-path="url(#clipPath2)"/>
    </g>
    <g fill="white" stroke-miterlimit="1.45" transform="matrix(1,0,0,1,-130,-52)" stroke-linecap="butt" stroke="white">
      <path d="M551 189.9824 L545 205.9824 L557 205.9824 Z" clip-path="url(#clipPath2)" stroke="none"/>
      <path fill="none" d="M551 189.9824 L545 205.9824 L557 205.9824 Z" clip-path="url(#clipPath2)" stroke="black"/>
      <path fill="none" d="M445.7475 392.5 L336.5054 392.5" clip-path="url(#clipPath2)" stroke="black"/>
      <path fill="black" d="M328.5054 392.5 L340.5054 397.5 L337.5054 392.5 L340.5054 387.5 Z" clip-path="url(#clipPath2)" stroke="none"/>
    </g>
    <g font-size="14" stroke-miterlimit="1.45" font-family="sans-serif" transform="matrix(1,0,0,1,-130,-52)" stroke-linecap="butt">
      <text x="337.8589" xml:space="preserve" y="405.4995" clip-path="url(#clipPath2)" stroke="none">opt:onParameter</text>
      <path fill="none" d="M613.0341 252.5 L651.75 252.5 L651.75 428.75 L237 428.75 L237 420.5012" clip-path="url(#clipPath2)"/>
      <path d="M237 412.5012 L232 424.5012 L237 421.5012 L242 424.5012 Z" clip-path="url(#clipPath2)" stroke="none"/>
      <text x="379.79" xml:space="preserve" y="444.4995" clip-path="url(#clipPath2)" stroke="none">opt:hasInputParameter</text>
      <path fill="none" d="M218.2263 372.5021 L218.4527 205.0228" clip-path="url(#clipPath2)"/>
    </g>
    <g fill="white" stroke-miterlimit="1.45" transform="matrix(1,0,0,1,-130,-52)" stroke-linecap="butt" stroke="white">
      <path d="M218.4729 190.0228 L212.4513 206.0147 L224.4513 206.0309 Z" clip-path="url(#clipPath2)" stroke="none"/>
      <path fill="none" d="M218.4729 190.0228 L212.4513 206.0147 L224.4513 206.0309 Z" clip-path="url(#clipPath2)" stroke="black"/>
    </g>
  </g>
</svg>
