<?xml version="1.0" encoding="UTF-8"?><svg xmlns="http://www.w3.org/2000/svg" xmlns:xlink="http://www.w3.org/1999/xlink" fill-opacity="1" color-rendering="auto" color-interpolation="auto" stroke="black" text-rendering="auto" stroke-linecap="square" width="713" stroke-miterlimit="10" stroke-opacity="1" shape-rendering="auto" fill="black" stroke-dasharray="none" font-weight="normal" stroke-width="1" height="415" font-family="'Dialog'" font-style="normal" stroke-linejoin="miter" font-size="12" stroke-dashoffset="0" image-rendering="auto">
  <!--Generated by ySVG-->
  <defs id="genericDefs"/>
  <g>
    <defs id="defs1">
      <linearGradient x1="214.5" gradientUnits="userSpaceOnUse" x2="225.4214" y1="156" y2="187.5524" id="linearGradient1" spreadMethod="pad">
        <stop stop-opacity="0.8627" stop-color="rgb(255,255,255)" offset="0%"/>
        <stop stop-opacity="0.1255" stop-color="rgb(255,255,255)" offset="100%"/>
      </linearGradient>
      <linearGradient x1="565.5" gradientUnits="userSpaceOnUse" x2="576.4214" y1="156" y2="187.5524" id="linearGradient2" spreadMethod="pad">
        <stop stop-opacity="0.8627" stop-color="rgb(255,255,255)" offset="0%"/>
        <stop stop-opacity="0.1255" stop-color="rgb(255,255,255)" offset="100%"/>
      </linearGradient>
      <linearGradient x1="200" gradientUnits="userSpaceOnUse" x2="209.2139" y1="256" y2="288.9072" id="linearGradient3" spreadMethod="pad">
        <stop stop-opacity="0.8627" stop-color="rgb(255,255,255)" offset="0%"/>
        <stop stop-opacity="0.1255" stop-color="rgb(255,255,255)" offset="100%"/>
      </linearGradient>
      <linearGradient x1="535" gradientUnits="userSpaceOnUse" x2="542.8156" y1="256" y2="289.8027" id="linearGradient4" spreadMethod="pad">
        <stop stop-opacity="0.8627" stop-color="rgb(255,255,255)" offset="0%"/>
        <stop stop-opacity="0.1255" stop-color="rgb(255,255,255)" offset="100%"/>
      </linearGradient>
      <linearGradient x1="225" gradientUnits="userSpaceOnUse" x2="230.7937" y1="387.48" y2="422.2845" id="linearGradient5" spreadMethod="pad">
        <stop stop-opacity="0.8627" stop-color="rgb(255,255,255)" offset="0%"/>
        <stop stop-opacity="0.1255" stop-color="rgb(255,255,255)" offset="100%"/>
      </linearGradient>
      <linearGradient x1="225" gradientUnits="userSpaceOnUse" x2="230.7937" y1="466.88" y2="501.6845" id="linearGradient6" spreadMethod="pad">
        <stop stop-opacity="0.8627" stop-color="rgb(255,255,255)" offset="0%"/>
        <stop stop-opacity="0.1255" stop-color="rgb(255,255,255)" offset="100%"/>
      </linearGradient>
      <linearGradient x1="535" gradientUnits="userSpaceOnUse" x2="541.5875" y1="387.48" y2="421.9301" id="linearGradient7" spreadMethod="pad">
        <stop stop-opacity="0.8627" stop-color="rgb(255,255,255)" offset="0%"/>
        <stop stop-opacity="0.1255" stop-color="rgb(255,255,255)" offset="100%"/>
      </linearGradient>
      <linearGradient x1="535" gradientUnits="userSpaceOnUse" x2="546.9205" y1="466.88" y2="481.8973" id="linearGradient8" spreadMethod="pad">
        <stop stop-opacity="0.8627" stop-color="rgb(255,255,255)" offset="0%"/>
        <stop stop-opacity="0.1255" stop-color="rgb(255,255,255)" offset="100%"/>
      </linearGradient>
      <linearGradient x1="535" gradientUnits="userSpaceOnUse" x2="546.9205" y1="509.48" y2="524.4973" id="linearGradient9" spreadMethod="pad">
        <stop stop-opacity="0.8627" stop-color="rgb(255,255,255)" offset="0%"/>
        <stop stop-opacity="0.1255" stop-color="rgb(255,255,255)" offset="100%"/>
      </linearGradient>
      <linearGradient x1="580.6" gradientUnits="userSpaceOnUse" x2="591.2802" y1="466.88" y2="484.6818" id="linearGradient10" spreadMethod="pad">
        <stop stop-opacity="0.8627" stop-color="rgb(255,255,255)" offset="0%"/>
        <stop stop-opacity="0.1255" stop-color="rgb(255,255,255)" offset="100%"/>
      </linearGradient>
      <linearGradient x1="580.6" gradientUnits="userSpaceOnUse" x2="591.2802" y1="509.48" y2="527.2817" id="linearGradient11" spreadMethod="pad">
        <stop stop-opacity="0.8627" stop-color="rgb(255,255,255)" offset="0%"/>
        <stop stop-opacity="0.1255" stop-color="rgb(255,255,255)" offset="100%"/>
      </linearGradient>
      <clipPath clipPathUnits="userSpaceOnUse" id="clipPath1">
        <path d="M0 0 L713 0 L713 415 L0 415 L0 0 Z"/>
      </clipPath>
      <clipPath clipPathUnits="userSpaceOnUse" id="clipPath2">
        <path d="M185 141 L898 141 L898 556 L185 556 L185 141 Z"/>
      </clipPath>
    </defs>
    <g fill="white" transform="translate(-185,-141)" stroke="white">
      <rect x="185" width="713" height="415" y="141" clip-path="url(#clipPath2)" stroke="none"/>
    </g>
    <g fill="rgb(255,204,153)" transform="matrix(1,0,0,1,-185,-141)" stroke="rgb(255,204,153)">
      <rect x="214.5" y="156" clip-path="url(#clipPath2)" width="136" rx="1.5" ry="1.5" height="45" stroke="none"/>
    </g>
    <g stroke-linecap="butt" transform="matrix(1,0,0,1,-185,-141)" stroke-miterlimit="1.45">
      <rect x="214.5" y="156" clip-path="url(#clipPath2)" fill="none" width="136" rx="1.5" ry="1.5" height="45"/>
    </g>
    <g fill="url(#linearGradient1)" transform="matrix(1,0,0,1,-185,-141)" stroke="url(#linearGradient1)">
      <path d="M215.25 159 Q215.25 156.75 217.5 156.75 L299.9 156.75 Q302.15 156.75 302.15 159 Q302.15 161.25 260.95 176.25 Q219.75 191.25 217.5 191.25 Q215.25 191.25 215.25 189 Z" clip-path="url(#clipPath2)" stroke="none"/>
    </g>
    <g font-size="15" stroke-miterlimit="1.45" font-family="sans-serif" transform="matrix(1,0,0,1,-185,-141)" stroke-linecap="butt">
      <text x="244.5569" xml:space="preserve" y="184.3923" clip-path="url(#clipPath2)" stroke="none">p-plan:Plan</text>
    </g>
    <g fill="rgb(255,204,153)" transform="matrix(1,0,0,1,-185,-141)" stroke="rgb(255,204,153)">
      <rect x="565.5" y="156" clip-path="url(#clipPath2)" width="136" rx="1.5" ry="1.5" height="45" stroke="none"/>
    </g>
    <g stroke-linecap="butt" transform="matrix(1,0,0,1,-185,-141)" stroke-miterlimit="1.45">
      <rect x="565.5" y="156" clip-path="url(#clipPath2)" fill="none" width="136" rx="1.5" ry="1.5" height="45"/>
    </g>
    <g fill="url(#linearGradient2)" transform="matrix(1,0,0,1,-185,-141)" stroke="url(#linearGradient2)">
      <path d="M566.25 159 Q566.25 156.75 568.5 156.75 L650.9 156.75 Q653.15 156.75 653.15 159 Q653.15 161.25 611.95 176.25 Q570.75 191.25 568.5 191.25 Q566.25 191.25 566.25 189 Z" clip-path="url(#clipPath2)" stroke="none"/>
    </g>
    <g font-size="15" stroke-miterlimit="1.45" font-family="sans-serif" transform="matrix(1,0,0,1,-185,-141)" stroke-linecap="butt">
      <text x="595.1394" xml:space="preserve" y="184.3923" clip-path="url(#clipPath2)" stroke="none">p-plan:Step</text>
    </g>
    <g fill="rgb(184,198,241)" transform="matrix(1,0,0,1,-185,-141)" stroke="rgb(184,198,241)">
      <rect x="200" y="256" clip-path="url(#clipPath2)" width="165" rx="1.5" ry="1.5" height="45" stroke="none"/>
    </g>
    <g stroke-linecap="butt" transform="matrix(1,0,0,1,-185,-141)" stroke-miterlimit="1.45">
      <rect x="200" y="256" clip-path="url(#clipPath2)" fill="none" width="165" rx="1.5" ry="1.5" height="45"/>
    </g>
    <g fill="url(#linearGradient3)" transform="matrix(1,0,0,1,-185,-141)" stroke="url(#linearGradient3)">
      <path d="M200.75 259 Q200.75 256.75 203 256.75 L304.25 256.75 Q306.5 256.75 306.5 259 Q306.5 261.25 255.875 276.25 Q205.25 291.25 203 291.25 Q200.75 291.25 200.75 289 Z" clip-path="url(#clipPath2)" stroke="none"/>
    </g>
    <g font-size="15" stroke-miterlimit="1.45" font-family="sans-serif" transform="matrix(1,0,0,1,-185,-141)" stroke-linecap="butt">
      <text x="203.7317" xml:space="preserve" y="284.3923" clip-path="url(#clipPath2)" stroke="none">wffd:WorkflowFragment</text>
    </g>
    <g fill="rgb(184,198,241)" transform="matrix(1,0,0,1,-185,-141)" stroke="rgb(184,198,241)">
      <rect x="535" y="256" clip-path="url(#clipPath2)" width="197" rx="1.5" ry="1.5" height="45" stroke="none"/>
    </g>
    <g stroke-linecap="butt" transform="matrix(1,0,0,1,-185,-141)" stroke-miterlimit="1.45">
      <rect x="535" y="256" clip-path="url(#clipPath2)" fill="none" width="197" rx="1.5" ry="1.5" height="45"/>
    </g>
    <g fill="url(#linearGradient4)" transform="matrix(1,0,0,1,-185,-141)" stroke="url(#linearGradient4)">
      <path d="M535.75 259 Q535.75 256.75 538 256.75 L660.05 256.75 Q662.3 256.75 662.3 259 Q662.3 261.25 601.275 276.25 Q540.25 291.25 538 291.25 Q535.75 291.25 535.75 289 Z" clip-path="url(#clipPath2)" stroke="none"/>
    </g>
    <g font-size="15" stroke-miterlimit="1.45" font-family="sans-serif" transform="matrix(1,0,0,1,-185,-141)" stroke-linecap="butt">
      <text x="539.3032" xml:space="preserve" y="284.3923" clip-path="url(#clipPath2)" stroke="none">wffd:WorkflowFragmentStep</text>
    </g>
    <g fill="rgb(184,198,241)" transform="matrix(1,0,0,1,-185,-141)" stroke="rgb(184,198,241)">
      <rect x="225" y="387.48" clip-path="url(#clipPath2)" width="268.4" rx="1.5" ry="1.5" height="45" stroke="none"/>
    </g>
    <g stroke-linecap="butt" transform="matrix(1,0,0,1,-185,-141)" stroke-miterlimit="1.45">
      <rect x="225" y="387.48" clip-path="url(#clipPath2)" fill="none" width="268.4" rx="1.5" ry="1.5" height="45"/>
    </g>
    <g fill="url(#linearGradient5)" transform="matrix(1,0,0,1,-185,-141)" stroke="url(#linearGradient5)">
      <path d="M225.75 390.48 Q225.75 388.23 228 388.23 L396.46 388.23 Q398.71 388.23 398.71 390.48 Q398.71 392.73 314.48 407.73 Q230.25 422.73 228 422.73 Q225.75 422.73 225.75 420.48 Z" clip-path="url(#clipPath2)" stroke="none"/>
    </g>
    <g font-size="15" stroke-miterlimit="1.45" font-family="sans-serif" transform="matrix(1,0,0,1,-185,-141)" stroke-linecap="butt">
      <text x="229.1548" xml:space="preserve" y="415.8723" clip-path="url(#clipPath2)" stroke="none">wffd:DetectedResultWorkflowFragment</text>
    </g>
    <g fill="rgb(184,198,241)" transform="matrix(1,0,0,1,-185,-141)" stroke="rgb(184,198,241)">
      <rect x="225" y="466.88" clip-path="url(#clipPath2)" width="268.4" rx="1.5" ry="1.5" height="45" stroke="none"/>
    </g>
    <g stroke-linecap="butt" transform="matrix(1,0,0,1,-185,-141)" stroke-miterlimit="1.45">
      <rect x="225" y="466.88" clip-path="url(#clipPath2)" fill="none" width="268.4" rx="1.5" ry="1.5" height="45"/>
    </g>
    <g fill="url(#linearGradient6)" transform="matrix(1,0,0,1,-185,-141)" stroke="url(#linearGradient6)">
      <path d="M225.75 469.88 Q225.75 467.63 228 467.63 L396.46 467.63 Q398.71 467.63 398.71 469.88 Q398.71 472.13 314.48 487.13 Q230.25 502.13 228 502.13 Q225.75 502.13 225.75 499.88 Z" clip-path="url(#clipPath2)" stroke="none"/>
    </g>
    <g font-size="15" stroke-miterlimit="1.45" font-family="sans-serif" transform="matrix(1,0,0,1,-185,-141)" stroke-linecap="butt">
      <text x="258.7447" xml:space="preserve" y="495.2723" clip-path="url(#clipPath2)" stroke="none">wffd:BoundWorkflowFragment</text>
    </g>
    <g fill="rgb(184,198,241)" transform="matrix(1,0,0,1,-185,-141)" stroke="rgb(184,198,241)">
      <rect x="535" y="387.48" clip-path="url(#clipPath2)" width="235.4" rx="1.5" ry="1.5" height="45" stroke="none"/>
    </g>
    <g stroke-linecap="butt" transform="matrix(1,0,0,1,-185,-141)" stroke-miterlimit="1.45">
      <rect x="535" y="387.48" clip-path="url(#clipPath2)" fill="none" width="235.4" rx="1.5" ry="1.5" height="45"/>
    </g>
    <g fill="url(#linearGradient7)" transform="matrix(1,0,0,1,-185,-141)" stroke="url(#linearGradient7)">
      <path d="M535.75 390.48 Q535.75 388.23 538 388.23 L685.01 388.23 Q687.26 388.23 687.26 390.48 Q687.26 392.73 613.755 407.73 Q540.25 422.73 538 422.73 Q535.75 422.73 535.75 420.48 Z" clip-path="url(#clipPath2)" stroke="none"/>
    </g>
    <g font-size="15" stroke-miterlimit="1.45" font-family="sans-serif" transform="matrix(1,0,0,1,-185,-141)" stroke-linecap="butt">
      <text x="538.0613" xml:space="preserve" y="415.8723" clip-path="url(#clipPath2)" stroke="none">wffd:DetectedResultFragmentStep</text>
    </g>
    <g fill="rgb(255,204,153)" transform="matrix(1,0,0,1,-185,-141)" stroke="rgb(255,204,153)">
      <rect x="535" y="466.88" clip-path="url(#clipPath2)" width="45.6" rx="1.5" ry="1.5" height="31.4" stroke="none"/>
    </g>
    <g stroke-linecap="butt" transform="matrix(1,0,0,1,-185,-141)" stroke-miterlimit="1.45">
      <rect x="535" y="466.88" clip-path="url(#clipPath2)" fill="none" width="45.6" rx="1.5" ry="1.5" height="31.4"/>
    </g>
    <g fill="url(#linearGradient8)" transform="matrix(1,0,0,1,-185,-141)" stroke="url(#linearGradient8)">
      <path d="M535.75 469.88 Q535.75 467.63 538 467.63 L561.64 467.63 Q563.89 467.63 563.89 469.88 Q563.89 472.13 552.07 481.69 Q540.25 491.25 538 491.25 Q535.75 491.25 535.75 489 Z" clip-path="url(#clipPath2)" stroke="none"/>
    </g>
    <g fill="rgb(184,198,241)" transform="matrix(1,0,0,1,-185,-141)" stroke="rgb(184,198,241)">
      <rect x="535" y="509.48" clip-path="url(#clipPath2)" width="45.6" rx="1.5" ry="1.5" height="31.4" stroke="none"/>
    </g>
    <g stroke-linecap="butt" transform="matrix(1,0,0,1,-185,-141)" stroke-miterlimit="1.45">
      <rect x="535" y="509.48" clip-path="url(#clipPath2)" fill="none" width="45.6" rx="1.5" ry="1.5" height="31.4"/>
    </g>
    <g fill="url(#linearGradient9)" transform="matrix(1,0,0,1,-185,-141)" stroke="url(#linearGradient9)">
      <path d="M535.75 512.48 Q535.75 510.23 538 510.23 L561.64 510.23 Q563.89 510.23 563.89 512.48 Q563.89 514.73 552.07 524.29 Q540.25 533.85 538 533.85 Q535.75 533.85 535.75 531.6 Z" clip-path="url(#clipPath2)" stroke="none"/>
    </g>
    <g fill="url(#linearGradient10)" transform="matrix(1,0,0,1,-185,-141)" stroke="url(#linearGradient10)">
      <path d="M581.35 469.88 Q581.35 467.63 583.6 467.63 L614.2599 467.63 Q616.5099 467.63 616.5099 469.88 Q616.5099 472.13 601.18 481.69 Q585.85 491.25 583.6 491.25 Q581.35 491.25 581.35 489 Z" clip-path="url(#clipPath2)" stroke="none"/>
    </g>
    <g font-size="15" stroke-miterlimit="1.45" font-family="sans-serif" transform="matrix(1,0,0,1,-185,-141)" stroke-linecap="butt">
      <text x="587.9516" xml:space="preserve" y="488.4723" clip-path="url(#clipPath2)" stroke="none">p-plan</text>
    </g>
    <g fill="url(#linearGradient11)" transform="matrix(1,0,0,1,-185,-141)" stroke="url(#linearGradient11)">
      <path d="M581.35 512.48 Q581.35 510.23 583.6 510.23 L614.2599 510.23 Q616.5099 510.23 616.5099 512.48 Q616.5099 514.73 601.18 524.29 Q585.85 533.85 583.6 533.85 Q581.35 533.85 581.35 531.6 Z" clip-path="url(#clipPath2)" stroke="none"/>
    </g>
    <g font-size="15" stroke-miterlimit="1.45" font-family="sans-serif" transform="matrix(1,0,0,1,-185,-141)" stroke-linecap="butt">
      <text x="592.5475" xml:space="preserve" y="531.0723" clip-path="url(#clipPath2)" stroke="none">wf-fd</text>
    </g>
    <g stroke-linecap="butt" transform="matrix(1,0,0,1,-185,-141)" stroke-miterlimit="1.45">
      <path fill="none" d="M565.5023 178.5 L358.5214 178.5" clip-path="url(#clipPath2)"/>
    </g>
    <g stroke-linecap="butt" transform="matrix(1,0,0,1,-185,-141)" stroke-miterlimit="1.45">
      <path d="M350.5214 178.5 L362.5214 183.5 L359.5214 178.5 L362.5214 173.5 Z" clip-path="url(#clipPath2)" stroke="none"/>
      <text x="388.8762" font-size="15" y="173.5923" clip-path="url(#clipPath2)" font-family="sans-serif" stroke="none" xml:space="preserve">p-plan:isStepOfPlan</text>
      <path fill="none" d="M282.5 255.9902 L282.5 216.013" clip-path="url(#clipPath2)"/>
      <path fill="white" d="M282.5 201.013 L276.5 217.013 L288.5 217.013 Z" clip-path="url(#clipPath2)" stroke="none"/>
      <path fill="none" d="M282.5 201.013 L276.5 217.013 L288.5 217.013 Z" clip-path="url(#clipPath2)"/>
      <path fill="none" d="M534.9955 278.5 L373.011 278.5" clip-path="url(#clipPath2)"/>
      <path d="M365.011 278.5 L377.011 283.5 L374.011 278.5 L377.011 273.5 Z" clip-path="url(#clipPath2)" stroke="none"/>
      <text x="378.3653" font-size="15" y="273.5923" clip-path="url(#clipPath2)" font-family="sans-serif" stroke="none" xml:space="preserve">wffd:isStepOfFragment</text>
      <path fill="none" d="M633.5 255.9902 L633.5 216.013" clip-path="url(#clipPath2)"/>
      <path fill="white" d="M633.5 201.013 L627.5 217.013 L639.5 217.013 Z" clip-path="url(#clipPath2)" stroke="none"/>
      <path fill="none" d="M633.5 201.013 L627.5 217.013 L639.5 217.013 Z" clip-path="url(#clipPath2)"/>
      <path fill="none" d="M459.9677 387.4679 L460.0448 386.7735 L460.1083 382.0936 L459.7237 377.446 L458.8986 372.8641 L457.6407 368.3818 L455.9577 364.0325 L453.8575 359.8499 L451.3476 355.8676 L448.4359 352.1191 L445.13 348.6382 L441.4377 345.4584 L437.3667 342.6133 L433.0298 340.1928 L428.5571 338.2592 L423.9822 336.8046 L419.3387 335.8214 L414.6602 335.3019 L409.9803 335.2383 L405.3326 335.623 L400.7508 336.4481 L396.2685 337.706 L391.9192 339.389 L387.7366 341.4892 L383.7542 343.9991 L380.0058 346.9108 L376.5249 350.2167 L373.3451 353.909 L370.5 357.98 L368.0795 362.3169 L366.1458 366.7896 L364.6913 371.3645 L363.7081 376.008 L363.3194 379.5087 L363.3211 379.6087" clip-path="url(#clipPath2)"/>
      <path d="M363.3021 387.6086 L368.3305 375.6205 L363.3234 378.6087 L358.3306 375.5968 Z" clip-path="url(#clipPath2)" stroke="none"/>
      <text x="247.6874" font-size="15" y="344.0446" clip-path="url(#clipPath2)" font-family="sans-serif" stroke="none" xml:space="preserve">wffd:overlapsWithWorkflowFragment</text>
      <path fill="none" d="M225.0257 409.98 L209.001 409.98 L209.001 316.0317" clip-path="url(#clipPath2)"/>
      <path fill="white" d="M209.001 301.0317 L203.001 317.0317 L215.001 317.0317 Z" clip-path="url(#clipPath2)" stroke="none"/>
      <path fill="none" d="M209.001 301.0317 L203.001 317.0317 L215.001 317.0317 Z" clip-path="url(#clipPath2)"/>
      <path fill="none" d="M359.2 432.5051 L359.2 458.8578" clip-path="url(#clipPath2)"/>
      <path d="M359.2 466.8578 L364.2 454.8578 L359.2 457.8578 L354.2 454.8578 Z" clip-path="url(#clipPath2)" stroke="none"/>
      <text x="357.1369" font-size="15" y="453.4923" clip-path="url(#clipPath2)" font-family="sans-serif" stroke="none" xml:space="preserve">wffd: foundAs</text>
      <path fill="none" d="M225.0247 489.38 L209 489.38 L209 315.9809" clip-path="url(#clipPath2)"/>
      <path fill="white" d="M209 300.9809 L203 316.9809 L215 316.9809 Z" clip-path="url(#clipPath2)" stroke="none"/>
      <path fill="none" d="M209 300.9809 L203 316.9809 L215 316.9809 Z" clip-path="url(#clipPath2)"/>
      <path fill="none" d="M770.4077 409.9557 L772.3651 406.8661 L773.9827 403.6314 L775.2495 400.3013 L776.1699 396.9008 L776.748 393.4552 L776.9884 389.9898 L776.8953 386.5298 L776.473 383.1004 L775.726 379.7268 L774.6584 376.4343 L773.2748 373.248 L771.5793 370.1932 L769.5764 367.2952 L767.2703 364.5792 L764.6654 362.0703 L761.7661 359.7939 L758.6522 357.821 L755.4175 356.2034 L752.0874 354.9366 L748.6869 354.0162 L745.2413 353.438 L741.7759 353.1977 L738.3159 353.2908 L734.8865 353.713 L731.5129 354.4601 L728.2203 355.5276 L725.0341 356.9113 L721.9794 358.6068 L719.0814 360.6098 L716.3653 362.9158 L713.8564 365.5207 L711.58 368.42 L709.6072 371.5339 L707.9895 374.7686 L706.7227 378.0987 L706.3258 379.5651 L706.3133 379.6643" clip-path="url(#clipPath2)"/>
      <path d="M705.0335 387.5612 L711.8888 376.5157 L706.4733 378.6772 L702.0176 374.9159 Z" clip-path="url(#clipPath2)" stroke="none"/>
      <text x="672.3222" font-size="15" y="335.7252" clip-path="url(#clipPath2)" font-family="sans-serif" stroke="none" xml:space="preserve">wffd:isPreceededBy, </text>
      <text x="605.2287" font-size="15" y="354.1017" clip-path="url(#clipPath2)" font-family="sans-serif" stroke="none" xml:space="preserve">wffd:overlapsWithWorkflowFragmentStep</text>
      <path fill="none" d="M571.5 387.4731 L571.5 315.9928" clip-path="url(#clipPath2)"/>
      <path fill="white" d="M571.5 300.9928 L565.5 316.9928 L577.5 316.9928 Z" clip-path="url(#clipPath2)" stroke="none"/>
      <path fill="none" d="M571.5 300.9928 L565.5 316.9928 L577.5 316.9928 Z" clip-path="url(#clipPath2)"/>
    </g>
  </g>
</svg>
